<?xml version="1.0" ?><svg id="Layer_1" style="enable-background:new 0 0 100 100;" version="1.1" viewBox="0 0 100 100" xml:space="preserve" xmlns="http://www.w3.org/2000/svg" xmlns:xlink="http://www.w3.org/1999/xlink"><title/><style type="text/css">
	.st0{fill:#FFFFFF;}
	.st1{fill:#1B1464;}
	.st2{fill:#C1272D;}
	.st3{fill:none;}
</style><path class="st2" d="M46.5,46.5V31.3c-7.6,1.4-13.7,7.5-15.1,15.1H46.5z"/><path class="st2" d="M53.5,46.5h15.1c-1.4-7.6-7.5-13.7-15.1-15.1V46.5z"/><path class="st2" d="M46.5,53.5H31.3c1.4,7.6,7.5,13.7,15.1,15.1V53.5z"/><path class="st2" d="M53.5,53.5v15.1c7.6-1.4,13.7-7.5,15.1-15.1H53.5z"/><g><path class="st1" d="M53.5,25.3c11,1.6,19.6,10.2,21.2,21.2h19.1C92.1,25,75,7.9,53.5,6.2V25.3z"/></g><g><path class="st1" d="M25.3,46.5c1.6-11,10.2-19.6,21.2-21.2V6.2C25,7.9,7.9,25,6.2,46.5H25.3z"/></g><g><path class="st1" d="M74.7,53.5c-1.6,11-10.2,19.6-21.2,21.2v19.1C75,92.1,92.1,75,93.8,53.5H74.7z"/></g><g><path class="st1" d="M46.5,74.7c-11-1.6-19.6-10.2-21.2-21.2H6.2C7.9,75,25,92.1,46.5,93.8V74.7z"/></g></svg>