<svg viewBox="0 0 1924 123" fill="none" xmlns="http://www.w3.org/2000/svg">
	<path d="M204.721 27.2913C126.957 -18.298 35.8385 8.29577 0 27.2913V84H1924V0C1878.34 18.5322 1698.16 71.7687 1589.17 27.2913C1480.18 -17.1861 1383.22 8.75908 1348.36 27.2913C1299.02 44.4337 1177.37 68.4329 1085.46 27.2913C993.561 -13.8503 910.691 10.149 880.743 27.2913C838.768 47.2135 731.105 75.1045 636.256 27.2913C541.407 -20.5219 457.8 7.36916 427.853 27.2913C385.878 46.2869 282.486 72.8807 204.721 27.2913Z" fill="white" fill-opacity="0.45"/>
	<path fill-rule="evenodd" clip-rule="evenodd" d="M0 35.7495L46.4967 43.7745C91.39 51.7996 182.78 67.8497 274.17 62.4997C367.163 57.1496 458.553 30.3995 549.943 25.0494C641.333 19.6994 732.723 35.7495 824.113 51.7996C915.503 67.8497 1008.5 83.8998 1099.89 75.8747C1191.28 67.8497 1282.67 35.7495 1374.06 30.3995C1465.45 25.0494 1556.84 46.4496 1649.83 51.7996C1741.22 57.1496 1832.61 46.4496 1877.5 41.0995L1924 35.7495V116H1877.5C1832.61 116 1741.22 116 1649.83 116C1556.84 116 1465.45 116 1374.06 116C1282.67 116 1191.28 116 1099.89 116C1008.5 116 915.503 116 824.113 116C732.723 116 641.333 116 549.943 116C458.553 116 367.163 116 274.17 116C182.78 116 91.39 116 46.4967 116H0V35.7495Z" fill="black"/>
	<path fill-rule="evenodd" clip-rule="evenodd" d="M0 42.7495L46.4967 50.7745C91.39 58.7996 182.78 74.8497 274.17 69.4997C367.163 64.1496 458.553 37.3995 549.943 32.0494C641.333 26.6994 732.723 42.7495 824.113 58.7996C915.503 74.8497 1008.5 90.8998 1099.89 82.8747C1191.28 74.8497 1282.67 42.7495 1374.06 37.3995C1465.45 32.0494 1556.84 53.4496 1649.83 58.7996C1741.22 64.1496 1832.61 53.4496 1877.5 48.0995L1924 42.7495V123H1877.5C1832.61 123 1741.22 123 1649.83 123C1556.84 123 1465.45 123 1374.06 123C1282.67 123 1191.28 123 1099.89 123C1008.5 123 915.503 123 824.113 123C732.723 123 641.333 123 549.943 123C458.553 123 367.163 123 274.17 123C182.78 123 91.39 123 46.4967 123H0V42.7495Z" fill="#3C0054"/>
</svg>