<svg viewBox="0 0 1760 81" fill="none" xmlns="http://www.w3.org/2000/svg">
	<path d="M1760 49.5V38.7009C1760 20.5932 1740.04 9.58701 1724.73 19.2476L1707.22 30.2897C1699.75 35.0032 1690.24 35.0197 1682.75 30.3319L1640.92 4.14656C1633.87 -0.267242 1624.98 -0.529447 1617.68 3.46085L1565.5 31.9889C1558.64 35.7362 1550.35 35.7478 1543.49 32.0196L1490.09 3.02075C1483.18 -0.729518 1474.84 -0.694225 1467.96 3.11435L1416.07 31.8654C1409.18 35.685 1400.81 35.7087 1393.89 31.9282L1341.03 3.03104C1334.16 -0.727214 1325.84 -0.727212 1318.97 3.03104L1266.11 31.9282C1259.19 35.7087 1250.82 35.685 1243.93 31.8654L1192 3.09433C1185.15 -0.7033 1176.83 -0.749982 1169.93 2.97048L1116.07 32.0295C1109.17 35.7499 1100.85 35.7033 1094 31.9056L1041.96 3.07455C1035.13 -0.712261 1026.84 -0.770119 1019.95 2.92091L965.548 32.0791C958.661 35.7701 950.371 35.7122 943.536 31.9254L891.536 3.11435C884.662 -0.694221 876.319 -0.729524 869.413 3.02075L816.05 31.9995C809.164 35.7387 800.849 35.7154 793.984 31.9376L741.516 3.06234C734.651 -0.715404 726.336 -0.738746 719.45 3.00042L665.94 32.0591C659.115 35.7656 650.879 35.777 644.044 32.0894L590.03 2.95029C583.154 -0.759119 574.865 -0.724416 568.02 3.04245L515.665 31.8557C508.719 35.6781 500.294 35.654 493.371 31.7918L442.02 3.14694C435.156 -0.681864 426.812 -0.740711 419.895 2.99091L365.993 32.0696C359.137 35.7681 350.875 35.7452 344.04 32.0087L291.032 3.03104C284.158 -0.727214 275.842 -0.727212 268.968 3.03104L216.069 31.9487C209.174 35.718 200.832 35.7063 193.948 31.9175L141.902 3.27479C134.828 -0.618396 126.23 -0.516726 119.25 3.54266L72.5512 30.7007C64.8837 35.1598 55.3355 34.8126 48.0121 29.8083L35.9764 21.5839C20.7106 11.1523 0 22.0842 0 40.5737V49.5C0 62.2025 10.2975 72.5 23 72.5H1737C1749.7 72.5 1760 62.2025 1760 49.5Z" fill="black"/>
	<path d="M0.000427246 80.5H1760C1760 80.5 1760 68.4838 1760 53.6611C1760 32.531 1736.71 19.6879 1718.84 30.9609L1711.73 35.4478C1701.5 41.8987 1688.48 41.9211 1678.23 35.5056L1646.38 15.5645C1635.95 9.03976 1622.82 8.65215 1612.03 14.5509L1570.75 37.114C1560.62 42.6536 1548.37 42.6707 1538.22 37.1595L1495.39 13.9003C1485.18 8.3564 1472.85 8.40857 1462.69 14.0386L1421.37 36.9314C1411.18 42.5778 1398.8 42.6129 1388.58 37.0244L1346.31 13.9155C1336.15 8.3598 1323.85 8.35981 1313.69 13.9155L1271.42 37.0244C1261.2 42.6129 1248.82 42.5778 1238.63 36.9314L1197.26 14.0091C1187.13 8.39515 1174.83 8.32615 1164.64 13.826L1121.36 37.174C1111.17 42.6738 1098.87 42.6048 1088.74 36.991L1047.21 13.9798C1037.1 8.3819 1024.85 8.29638 1014.67 13.7527L970.831 37.2473C960.651 42.7036 948.396 42.6181 938.293 37.0202L896.814 14.0386C886.652 8.40857 874.319 8.35639 864.11 13.9003L821.334 37.1298C811.156 42.6572 798.863 42.6227 788.716 37.0382L746.784 13.9618C736.637 8.37726 724.344 8.34275 714.166 13.8702L671.172 37.2178C661.082 42.697 648.909 42.7139 638.804 37.2625L595.305 13.7961C585.141 8.31264 572.887 8.36394 562.769 13.9324L521.004 36.9171C510.737 42.5677 498.283 42.532 488.048 36.8227L447.29 14.0868C437.143 8.42684 424.809 8.33985 414.584 13.8562L371.25 37.2334C361.116 42.7007 348.903 42.6668 338.799 37.1432L296.309 13.9155C286.146 8.3598 273.854 8.35981 263.691 13.9155L221.364 37.0546C211.171 42.6266 198.839 42.6093 188.662 37.0085L147.355 14.2758C136.897 8.52066 124.188 8.67096 113.869 14.6718L75.7011 36.8691C66.1096 42.4471 54.1654 42.0127 45.0044 35.7527L40.8006 32.8801C23.488 21.0498 0.00044632 33.4475 0.00044632 54.4161C0.00044632 68.8218 0.000427246 80.5 0.000427246 80.5Z" fill="#1C1C28"/>
</svg>