<svg viewBox="0 0 1920 154" fill="none" xmlns="http://www.w3.org/2000/svg">
	<path fill-rule="evenodd" clip-rule="evenodd" d="M0 81.4163L80 66.2947C160 51.1731 320 20.9299 480 26.9786C640 33.0272 800 75.3677 960 72.3434C1120 69.319 1280 20.9299 1440 5.80833C1600 -9.31328 1760 8.83265 1840 17.9056L1920 26.9786V154H1840C1760 154 1600 154 1440 154C1280 154 1120 154 960 154C800 154 640 154 480 154C320 154 160 154 80 154H0V81.4163Z" fill="black"/>
	<path fill-rule="evenodd" clip-rule="evenodd" d="M0 84.7156L80 70.2813C160 55.8471 320 26.9786 480 32.7523C640 38.526 800 78.9419 960 76.055C1120 73.1682 1280 26.9786 1440 12.5443C1600 -1.88994 1760 15.4312 1840 24.0917L1920 32.7523V154H1840C1760 154 1600 154 1440 154C1280 154 1120 154 960 154C800 154 640 154 480 154C320 154 160 154 80 154H0V84.7156Z" fill="#3C0054"/>
</svg>