<svg viewBox="0 0 1920 126" fill="none" xmlns="http://www.w3.org/2000/svg">
	<path fill-rule="evenodd" clip-rule="evenodd" d="M0 101.809C0 95.8088 2.95851 90.1947 7.90775 86.803L49.3419 58.4079C56.2313 53.6865 65.3292 53.7433 72.1591 58.5504L105.29 81.8691C113.654 87.7558 125.112 86.3837 131.849 78.6884L170.884 34.1034C176.756 27.3967 186.358 25.3855 194.427 29.172L238.53 49.8656C239.508 50.3248 240.448 50.8626 241.34 51.4738L295.689 88.7199C299.018 91.0013 302.96 92.2222 306.995 92.2222H357.745C359.243 92.2222 360.738 92.0537 362.199 91.72L416.286 79.3645C419.256 78.686 422.342 78.6951 425.308 79.391L468.3 89.4774C475.5 91.1665 483.045 88.7447 487.916 83.1806L525.551 40.1954C533.588 31.0148 547.902 31.1092 555.818 40.395L594.011 85.1971C597.811 89.6546 603.374 92.2222 609.231 92.2222H654.467C658.588 92.2222 662.609 90.9493 665.979 88.5774L708.641 58.5504C715.471 53.7433 724.569 53.6865 731.458 58.4079L769.342 84.3699C776.231 89.0913 785.329 89.0344 792.159 84.2274L834.821 54.2004C838.191 51.8285 842.212 50.5556 846.333 50.5556H898.485C900.023 50.5556 901.556 50.3782 903.053 50.0269L957.747 37.1954C959.244 36.8441 960.777 36.6667 962.315 36.6667H1014.47C1018.59 36.6667 1022.61 35.3937 1025.98 33.0218L1066.86 4.24837C1074.53 -1.15349 1084.93 -0.491933 1091.86 5.83897L1133.01 43.4391C1137.89 47.8926 1144.64 49.6539 1151.07 48.1459L1200 36.6667L1252.12 24.7611C1257.64 23.4986 1263.45 24.6409 1268.08 27.9037L1318.49 63.3781C1319.49 64.0875 1320.56 64.7022 1321.69 65.2143L1374.58 89.3801C1378.61 91.2225 1383.14 91.6727 1387.46 90.6601L1432.78 80.0269C1437.44 78.9342 1441.55 76.2082 1444.37 72.3436L1485.86 15.4723C1493.48 5.03057 1508.86 4.44904 1517.24 14.2854L1548.32 50.7459C1554.96 58.5334 1566.41 60.0536 1574.85 54.2687L1611.36 29.2475C1617.21 25.2393 1624.74 24.6274 1631.16 27.6393L1675.96 48.6615C1678.62 49.9089 1681.52 50.5556 1684.46 50.5556H1740.8H1795.65C1798.52 50.5556 1801.35 51.1724 1803.96 52.3642L1852.38 74.485C1857.72 76.9261 1863.87 76.8948 1869.18 74.3996L1891.5 63.9263C1904.77 57.703 1920 67.3816 1920 82.0322V100C1920 111.046 1911.05 120 1900 120H1860.8H1800H1740.8H1680H1620.8H1560H1500.8H1440H1380.8H1320H1260.8H1200H1140.8H1080H1020.8H960H900.8H840H780.8H720H660.8H600H540.8H480H420.8H360H300.8H240H180.8H120H60.8H18.1913C8.1445 120 0 111.855 0 101.809V101.809Z" fill="black"/>
	<path fill-rule="evenodd" clip-rule="evenodd" d="M0 107.809C0 101.809 2.95851 96.1947 7.90775 92.803L49.3419 64.4079C56.2313 59.6865 65.3292 59.7433 72.1591 64.5504L105.29 87.8691C113.654 93.7558 125.112 92.3837 131.849 84.6884L170.884 40.1034C176.756 33.3967 186.358 31.3855 194.427 35.172L238.53 55.8656C239.508 56.3248 240.448 56.8626 241.34 57.4738L295.689 94.7199C299.018 97.0013 302.96 98.2222 306.995 98.2222H357.745C359.243 98.2222 360.738 98.0537 362.199 97.72L416.286 85.3645C419.256 84.686 422.342 84.6951 425.308 85.391L468.3 95.4774C475.5 97.1665 483.045 94.7447 487.916 89.1806L525.551 46.1954C533.588 37.0148 547.902 37.1092 555.818 46.395L594.011 91.1971C597.811 95.6546 603.374 98.2222 609.231 98.2222H654.467C658.588 98.2222 662.609 96.9493 665.979 94.5774L708.641 64.5504C715.471 59.7433 724.569 59.6865 731.458 64.4079L769.342 90.3699C776.231 95.0913 785.329 95.0344 792.159 90.2274L834.821 60.2004C838.191 57.8285 842.212 56.5556 846.333 56.5556H898.485C900.023 56.5556 901.556 56.3782 903.053 56.0269L957.747 43.1954C959.244 42.8441 960.777 42.6667 962.315 42.6667H1014.47C1018.59 42.6667 1022.61 41.3937 1025.98 39.0218L1066.86 10.2484C1074.53 4.84651 1084.93 5.50807 1091.86 11.839L1133.01 49.4391C1137.89 53.8926 1144.64 55.6539 1151.07 54.1459L1200 42.6667L1252.12 30.7611C1257.64 29.4986 1263.45 30.6409 1268.08 33.9037L1318.49 69.3781C1319.49 70.0875 1320.56 70.7022 1321.69 71.2143L1374.58 95.3801C1378.61 97.2225 1383.14 97.6727 1387.46 96.6601L1432.78 86.0269C1437.44 84.9342 1441.55 82.2082 1444.37 78.3436L1485.86 21.4723C1493.48 11.0306 1508.86 10.449 1517.24 20.2854L1548.32 56.7459C1554.96 64.5334 1566.41 66.0536 1574.85 60.2687L1611.36 35.2475C1617.21 31.2393 1624.74 30.6274 1631.16 33.6393L1675.96 54.6615C1678.62 55.9089 1681.52 56.5556 1684.46 56.5556H1740.8H1795.65C1798.52 56.5556 1801.35 57.1724 1803.96 58.3642L1852.38 80.485C1857.72 82.9261 1863.87 82.8948 1869.18 80.3996L1891.5 69.9263C1904.77 63.703 1920 73.3816 1920 88.0322V106C1920 117.046 1911.05 126 1900 126H1860.8H1800H1740.8H1680H1620.8H1560H1500.8H1440H1380.8H1320H1260.8H1200H1140.8H1080H1020.8H960H900.8H840H780.8H720H660.8H600H540.8H480H420.8H360H300.8H240H180.8H120H60.8H18.1913C8.1445 126 0 117.855 0 107.809V107.809Z" fill="#1C1C28"/>
</svg>