<svg width="1980" height="124" viewBox="0 0 1980 124" fill="none" xmlns="http://www.w3.org/2000/svg">
<path fill-rule="evenodd" clip-rule="evenodd" d="M0 119.397C3.60454e-05 86.1996 3.60454e-05 86.1996 3.60454e-05 86.1996L42.9057 57.8045C50.0398 53.0831 59.4608 53.1399 66.5333 57.947L100.841 81.2657C109.502 87.1524 121.367 85.7803 128.343 78.085L168.764 33.5C174.845 26.7933 184.788 24.7821 193.143 28.5686L238.813 49.2622C239.826 49.7214 240.799 50.2592 241.723 50.8704L298.002 88.1165C301.449 90.3979 305.531 91.6188 309.709 91.6188H362.262C363.813 91.6188 365.361 91.4503 366.874 91.1166L422.882 78.7611C425.957 78.0826 429.153 78.0917 432.224 78.7876L476.743 88.874C484.199 90.5631 492.012 88.1413 497.056 82.5772L536.027 39.592C544.35 30.4114 559.172 30.5058 567.369 39.7916L606.919 84.5937C610.854 89.0512 616.614 91.6188 622.679 91.6188H669.522C673.789 91.6188 677.953 90.3459 681.443 87.974L725.62 57.947C732.692 53.1399 742.113 53.0831 749.247 57.8045L788.476 83.7665C795.61 88.4879 805.031 88.431 812.104 83.624L856.281 53.597C859.771 51.2251 863.934 49.9522 868.202 49.9522H922.206C923.799 49.9522 925.386 49.7748 926.936 49.4235L983.573 36.592C985.123 36.2407 986.71 36.0633 988.303 36.0633H1042.31C1046.58 36.0633 1050.74 34.7903 1054.23 32.4184L1096.56 3.64497C1104.5 -1.75689 1115.27 -1.09533 1122.45 5.23557L1165.06 42.8357C1170.11 47.2892 1177.1 49.0505 1183.76 47.5425L1234.43 36.0633L1288.4 24.1577C1294.12 22.8952 1300.13 24.0375 1304.93 27.3003L1357.13 62.7747C1358.16 63.4841 1359.27 64.0988 1360.44 64.6109L1415.21 88.7767C1419.38 90.6191 1424.07 91.0693 1428.55 90.0567L1475.48 79.4235C1480.3 78.3308 1484.56 75.6048 1487.48 71.7402L1530.44 14.8689C1538.33 4.42717 1554.26 3.84564 1562.94 13.682L1595.12 50.1425C1602 57.93 1613.85 59.4502 1622.59 53.6653L1660.4 28.6441C1666.46 24.6359 1674.25 24.024 1680.9 27.0359L1727.29 48.0581C1730.05 49.3055 1733.05 49.9522 1736.09 49.9522H1794.44H1851.23C1854.21 49.9522 1857.14 50.569 1859.84 51.7608L1909.98 73.8816C1915.51 76.3227 1921.88 76.2914 1927.38 73.7962L1950.49 63.3229C1964.23 57.0996 1980 66.7782 1980 81.4288V99.3966C1980 110.443 1970.73 119.397 1959.29 119.397H1918.7H1855.74H1794.44H1731.48H1670.17H1607.21H1545.91H1482.95H1421.65H1358.69H1297.39H1234.43H1173.13H1110.17H1048.86H985.906H924.603H861.644H800.341H737.382H676.08H613.12H551.818H488.859H427.556H364.597H303.294H240.335H179.033H116.073H54.7707H10.6488C0.245193 119.397 0 119.397 0 119.397Z" fill="black"/>
<path fill-rule="evenodd" clip-rule="evenodd" d="M0 90.1996L42.9057 61.8045C50.0398 57.0831 59.4608 57.1399 66.5333 61.947L100.841 85.2657C109.502 91.1524 121.367 89.7803 128.343 82.085L168.764 37.5C174.845 30.7933 184.788 28.7821 193.143 32.5686L238.813 53.2622C239.826 53.7214 240.799 54.2592 241.723 54.8704L298.002 92.1165C301.449 94.3979 305.531 95.6188 309.709 95.6188H362.262C363.813 95.6188 365.361 95.4503 366.874 95.1166L422.882 82.7611C425.957 82.0826 429.153 82.0917 432.224 82.7876L476.743 92.874C484.199 94.5631 492.012 92.1413 497.056 86.5772L536.027 43.592C544.35 34.4114 559.172 34.5058 567.369 43.7916L606.919 88.5937C610.854 93.0512 616.614 95.6188 622.679 95.6188H669.522C673.789 95.6188 677.953 94.3459 681.443 91.974L725.62 61.947C732.692 57.1399 742.113 57.0831 749.247 61.8045L788.477 87.7665C795.61 92.4879 805.031 92.431 812.104 87.624L856.281 57.597C859.771 55.2251 863.935 53.9522 868.202 53.9522H922.206C923.799 53.9522 925.386 53.7748 926.936 53.4235L983.573 40.592C985.123 40.2407 986.71 40.0633 988.303 40.0633H1042.31C1046.58 40.0633 1050.74 38.7903 1054.23 36.4184L1096.56 7.64499C1104.5 2.2431 1115.27 2.90466 1122.45 9.23559L1165.06 46.8357C1170.11 51.2892 1177.1 53.0505 1183.76 51.5425L1234.43 40.0633L1288.4 28.1577C1294.12 26.8952 1300.13 28.0375 1304.93 31.3003L1357.13 66.7747C1358.16 67.4841 1359.27 68.0988 1360.44 68.6109L1415.21 92.7767C1419.38 94.6191 1424.07 95.0693 1428.55 94.0567L1475.48 83.4235C1480.3 82.3308 1484.56 79.6048 1487.48 75.7402L1530.44 18.8689C1538.33 8.42719 1554.26 7.84559 1562.94 17.682L1595.12 54.1425C1602 61.93 1613.85 63.4502 1622.59 57.6653L1660.4 32.6441C1666.46 28.6359 1674.25 28.024 1680.9 31.0359L1727.29 52.0581C1730.05 53.3055 1733.05 53.9522 1736.09 53.9522H1794.44H1851.23C1854.21 53.9522 1857.14 54.569 1859.84 55.7608L1909.98 77.8816C1915.51 80.3227 1921.88 80.2914 1927.37 77.7962L1950.49 67.3229C1964.23 61.0996 1980 70.7782 1980 85.4288L1980 123.397C1980 123.397 1970.73 123.397 1959.29 123.397H1918.7H1855.74H1794.44H1731.48H1670.17H1607.21H1545.91H1482.95H1421.65H1358.69H1297.39H1234.43H1173.13H1110.17H1048.87H985.906H924.603H861.644H800.341H737.382H676.08H613.12H551.818H488.859H427.556H364.597H303.294H240.335H179.033H116.073H54.7707H6.46841e-05C6.46841e-05 123.397 0 100.246 0 90.1996Z" fill="#1C1C28"/>
</svg>