<svg viewBox="0 0 1021 776" fill="none" xmlns="http://www.w3.org/2000/svg">
<circle cx="282.5" cy="282.5" r="282.5" fill="#8BEAFF" fill-opacity="0.5"/>
<circle cx="877" cy="213" r="141" fill="#FA6800" fill-opacity="0.3"/>
<path d="M1021 449.5C1021 669.585 811.53 756.5 544.5 756.5C277.47 756.5 54 669.585 54 449.5C54 229.415 270.47 51 537.5 51C804.53 51 1021 229.415 1021 449.5Z" fill="white" fill-opacity="0.75"/>
<path d="M1001 564.5C1001 739.85 793.708 776 538 776C282.292 776 75 739.85 75 564.5C75 389.15 282.292 247 538 247C793.708 247 1001 389.15 1001 564.5Z" fill="#00FF80" fill-opacity="0.5"/>
<path d="M380.88 162.408C381.2 165.16 381.104 167.656 380.592 169.896C380.144 172.072 379.664 173.896 379.152 175.368C378.064 178.184 376.592 180.776 374.736 183.144C372.88 185.448 370.832 187.464 368.592 189.192C366.416 190.92 364.144 192.36 361.776 193.512C359.408 194.664 357.2 195.464 355.152 195.912C354.64 196.04 354.096 196.168 353.52 196.296C353.008 196.36 352.784 196.328 352.848 196.2C352.72 196.072 352.912 195.88 353.424 195.624C353.936 195.368 354.416 195.144 354.864 194.952C358.448 193.224 361.808 191.176 364.944 188.808C368.08 186.44 370.768 183.592 373.008 180.264C374.096 178.664 375.056 176.904 375.888 174.984C376.72 173 377.296 170.952 377.616 168.84C377.936 166.728 377.936 164.584 377.616 162.408C377.296 160.168 376.56 157.992 375.408 155.88C373.936 153.192 372.048 151.016 369.744 149.352C367.44 147.624 364.912 146.344 362.16 145.512C359.408 144.616 356.56 144.104 353.616 143.976C350.736 143.784 347.952 143.912 345.264 144.36C344.88 144.424 344.656 144.456 344.592 144.456C344.528 144.456 344.432 144.424 344.304 144.36C344.304 144.232 344.4 144.136 344.592 144.072C344.848 144.008 345.072 143.912 345.264 143.784C346.416 143.272 347.92 142.856 349.776 142.536C351.696 142.152 353.808 142.024 356.112 142.152C358.416 142.28 360.848 142.728 363.408 143.496C366.032 144.2 368.656 145.416 371.28 147.144C373.904 148.872 376.048 151.144 377.712 153.96C379.44 156.712 380.496 159.528 380.88 162.408ZM374.832 158.376C375.408 159.912 375.728 161.448 375.792 162.984C375.92 164.52 375.856 166.024 375.6 167.496C375.408 168.904 375.056 170.28 374.544 171.624C374.096 172.904 373.552 174.056 372.912 175.08C372.784 175.208 372.624 175.432 372.432 175.752C372.24 176.008 372.048 176.296 371.856 176.616C371.664 176.872 371.472 177.096 371.28 177.288C371.088 177.416 370.96 177.448 370.896 177.384C370.832 177.384 370.832 177.256 370.896 177C371.024 176.744 371.12 176.456 371.184 176.136C371.312 175.816 371.44 175.528 371.568 175.272C371.696 175.016 371.792 174.824 371.856 174.696C372.432 173.608 372.816 172.296 373.008 170.76C373.2 169.16 373.232 167.528 373.104 165.864C373.04 164.2 372.784 162.6 372.336 161.064C371.952 159.464 371.376 158.152 370.608 157.128C370.352 156.744 369.84 156.168 369.072 155.4C368.304 154.568 367.28 153.704 366 152.808C364.72 151.912 363.216 151.08 361.488 150.312C359.76 149.544 357.808 149.064 355.632 148.872C353.52 148.68 351.376 148.648 349.2 148.776C347.088 148.84 345.072 149.032 343.152 149.352C341.296 149.672 339.632 150.056 338.16 150.504C336.752 150.952 335.696 151.368 334.992 151.752C334.672 151.944 334.352 152.072 334.032 152.136C333.776 152.2 333.648 152.2 333.648 152.136C333.584 152.008 333.648 151.848 333.84 151.656C334.032 151.464 334.192 151.304 334.32 151.176C335.344 150.152 336.88 149.192 338.928 148.296C341.04 147.4 343.344 146.696 345.84 146.184C348.4 145.608 350.992 145.32 353.616 145.32C356.304 145.256 358.704 145.576 360.816 146.28C362.16 146.728 363.536 147.336 364.944 148.104C366.416 148.808 367.76 149.672 368.976 150.696C370.256 151.72 371.408 152.872 372.432 154.152C373.456 155.432 374.256 156.84 374.832 158.376ZM342 193.512C342.512 190.632 343.184 187.72 344.016 184.776C344.912 181.768 345.808 178.728 346.704 175.656C347.6 172.776 348.432 169.832 349.2 166.824C349.968 163.816 350.416 160.584 350.544 157.128C350.544 156.808 350.544 156.648 350.544 156.648C350.608 156.648 350.672 156.648 350.736 156.648C350.8 156.648 350.896 156.84 351.024 157.224C351.728 158.824 351.984 160.968 351.792 163.656C351.664 166.28 351.312 169.032 350.736 171.912C350.16 174.728 349.488 177.48 348.72 180.168C348.016 182.792 347.472 184.872 347.088 186.408C346.768 187.56 346.48 188.648 346.224 189.672C345.968 190.632 345.68 191.656 345.36 192.744C347.664 191.208 349.904 189.672 352.08 188.136C354.32 186.536 356.4 184.872 358.32 183.144C360.24 181.352 361.936 179.464 363.408 177.48C364.944 175.496 366.16 173.352 367.056 171.048C368.528 167.208 368.464 163.752 366.864 160.68C365.328 157.544 362.384 155.304 358.032 153.96C354.768 153 351.472 152.52 348.144 152.52C348.72 154.696 348.976 157.064 348.912 159.624C348.912 162.184 348.656 164.328 348.144 166.056C347.248 169.448 346.16 172.936 344.88 176.52C343.6 180.04 342.32 183.336 341.04 186.408C340.976 186.536 340.816 186.856 340.56 187.368C340.304 187.88 340.08 188.104 339.888 188.04C339.76 188.04 339.728 187.784 339.792 187.272C339.856 186.696 339.888 186.344 339.888 186.216C339.952 185.448 340.08 184.52 340.272 183.432C340.464 182.344 340.656 181.224 340.848 180.072C341.04 178.92 341.264 177.8 341.52 176.712C341.776 175.56 342.064 174.6 342.384 173.832C342.512 173.384 342.768 172.36 343.152 170.76C343.536 169.16 343.92 167.304 344.304 165.192C344.688 163.08 345.04 160.904 345.36 158.664C345.68 156.36 345.904 154.312 346.032 152.52C345.52 152.52 345.136 152.552 344.88 152.616C344.944 155.24 344.688 157.928 344.112 160.68C343.6 163.368 342.928 166.12 342.096 168.936C341.264 171.688 340.368 174.472 339.408 177.288C338.448 180.104 337.648 182.888 337.008 185.64C336.496 187.752 336.112 189.992 335.856 192.36C335.6 194.728 335.504 197.096 335.568 199.464C335.632 201.832 335.92 204.168 336.432 206.472C336.944 208.712 337.712 210.792 338.736 212.712C338.928 213.032 338.928 213.16 338.736 213.096C338.608 213.096 338.448 213.032 338.256 212.904C336.528 210.92 335.248 208.744 334.416 206.376C333.584 204.008 333.072 201.576 332.88 199.08C332.688 196.52 332.752 193.928 333.072 191.304C333.456 188.68 333.936 186.12 334.512 183.624C335.152 180.936 335.888 178.248 336.72 175.56C337.552 172.872 338.352 170.248 339.12 167.688C339.888 165.064 340.592 162.536 341.232 160.104C341.936 157.608 342.448 155.176 342.768 152.808C340.912 153.064 339.12 153.448 337.392 153.96C335.664 154.408 334 154.888 332.4 155.4C331.888 155.528 331.6 155.528 331.536 155.4C331.472 155.272 331.536 155.144 331.728 155.016C331.984 154.888 332.144 154.792 332.208 154.728C334 153.64 335.984 152.744 338.16 152.04C340.4 151.272 342.704 150.76 345.072 150.504C347.44 150.184 349.872 150.12 352.368 150.312C354.864 150.44 357.328 150.856 359.76 151.56C362.32 152.328 364.432 153.512 366.096 155.112C367.76 156.712 368.976 158.536 369.744 160.584C370.576 162.568 370.928 164.712 370.8 167.016C370.672 169.256 370.096 171.432 369.072 173.544C367.728 176.232 366.032 178.696 363.984 180.936C361.936 183.112 359.632 185.128 357.072 186.984C354.576 188.84 351.888 190.568 349.008 192.168C346.192 193.704 343.376 195.176 340.56 196.584C340.432 196.648 340.08 196.808 339.504 197.064C338.928 197.256 338.608 197.288 338.544 197.16C338.544 197.096 338.704 196.936 339.024 196.68C339.408 196.36 339.792 196.072 340.176 195.816C341.136 195.304 341.744 194.536 342 193.512ZM348.432 194.664C349.392 194.152 350.576 193.48 351.984 192.648C353.456 191.816 354.864 191.016 356.208 190.248C357.552 189.48 358.704 188.84 359.664 188.328C360.688 187.816 361.232 187.624 361.296 187.752C361.36 187.816 361.232 188.04 360.912 188.424C360.656 188.744 360.304 189.128 359.856 189.576C359.408 189.96 358.96 190.344 358.512 190.728C358.064 191.112 357.712 191.4 357.456 191.592C356.176 192.488 354.896 193.288 353.616 193.992C352.4 194.696 351.152 195.336 349.872 195.912C348.784 196.424 347.664 196.872 346.512 197.256C345.424 197.64 344.304 198.056 343.152 198.504C342.832 199.4 342.544 200.296 342.288 201.192C342.096 202.088 341.904 202.92 341.712 203.688C341.648 204.008 341.552 204.328 341.424 204.648C341.36 204.968 341.296 205.128 341.232 205.128C341.104 205.064 341.008 204.84 340.944 204.456C340.944 204.008 340.944 203.656 340.944 203.4C340.944 202.824 340.944 202.152 340.944 201.384C340.944 200.552 340.976 199.848 341.04 199.272C340.592 199.4 340.144 199.592 339.696 199.848C339.312 200.104 339.152 200.488 339.216 201C339.216 202.92 339.312 204.648 339.504 206.184C339.824 208.36 340.4 210.44 341.232 212.424C341.296 212.552 341.36 212.712 341.424 212.904C341.552 213.096 341.584 213.224 341.52 213.288C341.392 213.352 341.104 213.224 340.656 212.904C339.952 212.008 339.344 211.144 338.832 210.312C338.32 209.416 337.904 208.072 337.584 206.28C337.456 205.704 337.36 204.936 337.296 203.976C337.296 203.016 337.328 202.12 337.392 201.288C337.392 200.776 337.488 200.328 337.68 199.944C337.872 199.56 338.288 199.208 338.928 198.888C339.312 198.696 339.952 198.408 340.848 198.024C341.808 197.576 342.8 197.128 343.824 196.68C344.848 196.232 345.776 195.816 346.608 195.432C347.504 195.048 348.112 194.792 348.432 194.664ZM405.869 194.472C407.917 196.328 409.837 198.312 411.629 200.424C413.421 202.472 415.149 204.616 416.813 206.856C416.877 206.984 417.037 207.24 417.293 207.624C417.613 207.944 417.709 208.168 417.581 208.296C417.517 208.36 417.261 208.328 416.813 208.2C416.429 208.008 416.173 207.848 416.045 207.72C415.533 207.4 414.925 206.984 414.221 206.472C413.581 205.96 412.877 205.416 412.109 204.84C411.405 204.264 410.701 203.688 409.997 203.112C409.293 202.472 408.717 201.896 408.269 201.384C407.949 201.128 407.181 200.488 405.965 199.464C404.749 198.376 403.373 197.224 401.837 196.008C400.301 194.792 398.733 193.672 397.133 192.648C395.533 191.624 394.221 190.984 393.197 190.728C393.005 190.664 392.717 190.568 392.333 190.44C392.013 190.312 391.885 190.088 391.949 189.768C392.461 187.336 393.101 184.968 393.869 182.664C394.637 180.36 395.373 177.992 396.077 175.56C396.973 172.552 397.805 169.48 398.573 166.344C399.405 163.208 399.885 159.816 400.013 156.168C400.013 155.848 400.045 155.688 400.109 155.688C400.301 155.688 400.461 155.912 400.589 156.36C401.357 158.088 401.677 160.328 401.549 163.08C401.421 165.832 401.069 168.712 400.493 171.72C399.981 174.664 399.309 177.512 398.477 180.264C397.709 182.952 397.037 185.096 396.461 186.696L396.173 187.464C398.541 185.864 401.005 184.264 403.565 182.664C406.125 181.064 408.493 179.464 410.669 177.864C412.909 176.2 414.829 174.504 416.429 172.776C418.093 170.984 419.213 169.128 419.789 167.208C420.173 165.928 420.109 164.648 419.597 163.368C419.149 162.088 418.317 160.904 417.101 159.816C415.949 158.664 414.477 157.672 412.685 156.84C410.893 156.008 408.909 155.432 406.733 155.112C403.853 154.728 400.941 154.632 397.997 154.824C398.253 156.744 398.285 158.696 398.093 160.68C397.965 162.6 397.741 164.264 397.421 165.672C396.589 169.128 395.533 172.712 394.253 176.424C392.973 180.072 391.661 183.496 390.317 186.696C390.189 186.888 389.997 187.208 389.741 187.656C389.485 188.104 389.261 188.296 389.069 188.232C388.941 188.168 388.909 187.88 388.973 187.368C389.037 186.856 389.069 186.504 389.069 186.312C389.133 185.544 389.261 184.616 389.453 183.528C389.709 182.376 389.933 181.192 390.125 179.976C390.381 178.76 390.637 177.608 390.893 176.52C391.213 175.368 391.501 174.376 391.757 173.544C391.885 173.16 392.077 172.36 392.333 171.144C392.653 169.864 392.973 168.36 393.293 166.632C393.613 164.904 393.933 163.048 394.253 161.064C394.573 159.08 394.829 157.16 395.021 155.304L393.677 155.496C393.485 157.928 393.101 160.392 392.525 162.888C391.949 165.384 391.277 167.912 390.509 170.472C389.805 172.968 389.037 175.528 388.205 178.152C387.437 180.712 386.765 183.24 386.189 185.736C385.677 187.976 385.261 190.312 384.941 192.744C384.685 195.176 384.589 197.576 384.653 199.944C384.781 202.312 385.069 204.616 385.517 206.856C386.029 209.032 386.829 211.016 387.917 212.808C388.045 213.128 388.045 213.288 387.917 213.288C387.789 213.288 387.629 213.192 387.437 213C385.837 211.144 384.621 209.064 383.789 206.76C382.957 204.456 382.413 202.056 382.157 199.56C381.965 197 381.997 194.376 382.253 191.688C382.573 189 383.021 186.376 383.597 183.816C384.685 179.016 385.997 174.28 387.533 169.608C389.069 164.936 390.349 160.424 391.373 156.072C389.773 156.456 388.205 156.936 386.669 157.512C385.133 158.024 383.693 158.6 382.349 159.24C382.029 159.368 381.837 159.4 381.773 159.336C381.709 159.272 381.741 159.176 381.869 159.048C381.997 158.856 382.125 158.728 382.253 158.664C385.453 156.04 389.357 154.184 393.965 153.096C398.573 152.008 403.277 151.72 408.077 152.232C410.573 152.552 412.845 153.256 414.893 154.344C417.005 155.432 418.733 156.776 420.077 158.376C421.421 159.912 422.285 161.64 422.669 163.56C423.117 165.48 422.925 167.4 422.093 169.32C421.133 171.56 419.597 173.64 417.485 175.56C415.437 177.48 413.101 179.272 410.477 180.936C407.917 182.6 405.197 184.136 402.317 185.544C399.437 186.952 396.749 188.264 394.253 189.48C395.277 189.48 396.333 189.64 397.421 189.96C398.509 190.28 399.565 190.696 400.589 191.208C401.677 191.656 402.669 192.168 403.565 192.744C404.525 193.32 405.293 193.896 405.869 194.472ZM432.461 170.472C431.501 173.8 430.029 176.648 428.045 179.016C426.125 181.32 423.981 183.24 421.613 184.776C419.245 186.312 416.845 187.496 414.413 188.328C411.981 189.096 409.869 189.608 408.077 189.864C407.565 189.992 407.085 190.056 406.637 190.056C406.253 189.992 406.093 189.896 406.156 189.768C406.029 189.64 406.157 189.512 406.541 189.384C406.989 189.256 407.437 189.096 407.885 188.904C411.341 187.624 414.669 185.96 417.869 183.912C421.069 181.864 423.885 179.144 426.317 175.752C427.469 174.152 428.333 172.296 428.909 170.184C429.485 168.072 429.677 165.928 429.485 163.752C429.357 161.576 428.812 159.464 427.853 157.416C426.957 155.368 425.613 153.608 423.821 152.136C421.709 150.344 419.405 148.936 416.909 147.912C414.413 146.888 411.853 146.184 409.229 145.8C406.605 145.416 403.949 145.352 401.261 145.608C398.573 145.8 395.981 146.216 393.484 146.856C393.036 146.984 392.781 147.08 392.717 147.144C392.653 147.144 392.589 147.08 392.525 146.952C392.525 146.888 392.781 146.664 393.293 146.28C394.317 145.64 395.661 145.064 397.325 144.552C399.053 143.976 400.973 143.592 403.085 143.4C405.261 143.208 407.597 143.24 410.093 143.496C412.589 143.688 415.149 144.264 417.773 145.224C420.461 146.12 422.989 147.528 425.357 149.448C427.725 151.304 429.613 153.608 431.021 156.36C432.365 159.048 433.037 161.672 433.037 164.232C433.101 166.728 432.909 168.808 432.461 170.472ZM383.693 154.824C384.973 152.968 386.669 151.464 388.781 150.312C390.893 149.096 393.197 148.2 395.693 147.624C398.189 147.048 400.781 146.792 403.469 146.856C406.221 146.92 408.877 147.24 411.437 147.816C413.997 148.392 416.365 149.256 418.541 150.408C420.781 151.56 422.637 152.968 424.109 154.632C425.133 155.848 425.901 157.16 426.413 158.568C426.989 159.912 427.277 161.32 427.277 162.792C427.341 164.2 427.181 165.576 426.797 166.92C426.477 168.264 425.997 169.512 425.357 170.664C425.229 170.92 424.909 171.368 424.397 172.008C423.885 172.584 423.565 172.808 423.437 172.68C423.309 172.616 423.405 172.264 423.725 171.624C424.045 170.984 424.269 170.504 424.397 170.184C424.909 168.52 425.101 166.888 424.973 165.288C424.909 163.624 424.589 162.088 424.013 160.68C423.501 159.272 422.797 158.024 421.901 156.936C421.005 155.784 420.045 154.856 419.021 154.152C416.589 152.552 413.837 151.432 410.765 150.792C407.693 150.088 404.557 149.832 401.357 150.024C398.221 150.152 395.149 150.696 392.141 151.656C389.133 152.552 386.541 153.768 384.365 155.304C383.789 155.816 383.405 155.976 383.213 155.784C383.085 155.72 383.085 155.592 383.213 155.4C383.405 155.144 383.565 154.952 383.693 154.824ZM434.861 215.304C435.245 215.24 435.437 215.272 435.437 215.4C435.437 215.528 435.277 215.656 434.957 215.784C432.653 216.616 430.413 217.064 428.237 217.128C426.061 217.192 423.981 216.968 421.997 216.456C420.013 216.008 418.157 215.336 416.429 214.44C414.701 213.608 413.133 212.68 411.725 211.656C410.061 210.44 408.461 209.096 406.925 207.624C405.453 206.088 404.013 204.584 402.605 203.112C401.197 201.576 399.789 200.104 398.381 198.696C396.973 197.288 395.533 196.04 394.061 194.952C392.973 198.536 391.981 201.704 391.085 204.456C390.957 204.776 390.829 205.064 390.701 205.32C390.573 205.576 390.445 205.672 390.317 205.608C390.189 205.544 390.125 205.384 390.125 205.128C390.125 204.808 390.125 204.488 390.125 204.168C390.253 202.376 390.381 200.552 390.509 198.696C390.637 196.84 390.925 194.984 391.373 193.128C390.925 192.872 390.477 192.648 390.029 192.456C389.645 192.264 389.197 192.04 388.685 191.784C388.493 191.592 388.397 191.464 388.397 191.4C388.397 191.336 388.461 191.304 388.589 191.304C388.781 191.304 388.941 191.304 389.069 191.304C391.629 191.496 393.965 192.296 396.077 193.704C398.189 195.048 400.237 196.648 402.221 198.504C404.205 200.36 406.157 202.344 408.077 204.456C409.997 206.504 412.045 208.328 414.221 209.928C415.437 210.824 416.813 211.656 418.349 212.424C419.949 213.128 421.645 213.736 423.437 214.248C425.229 214.76 427.085 215.112 429.005 215.304C430.989 215.56 432.941 215.56 434.861 215.304ZM419.981 201.288C421.773 202.888 423.469 204.68 425.069 206.664C426.733 208.648 428.333 210.248 429.869 211.464C430.317 211.912 430.509 212.232 430.445 212.424C430.317 212.552 430.157 212.584 429.965 212.52C429.773 212.456 429.549 212.392 429.292 212.328C427.565 211.752 425.933 210.952 424.397 209.928C422.925 208.904 421.485 207.752 420.077 206.472C418.669 205.192 417.293 203.848 415.949 202.44C414.669 201.032 413.357 199.656 412.013 198.312C411.117 197.416 410.125 196.424 409.036 195.336C408.013 194.248 406.925 193.256 405.773 192.36C404.621 191.4 403.405 190.632 402.125 190.056C400.909 189.416 399.629 189.096 398.285 189.096L402.029 187.464C402.989 187.016 404.173 186.472 405.581 185.832C406.989 185.192 408.333 184.584 409.613 184.008C410.893 183.432 412.013 182.984 412.973 182.664C413.933 182.28 414.445 182.12 414.509 182.184C414.573 182.312 414.445 182.536 414.125 182.856C413.869 183.176 413.485 183.528 412.973 183.912C412.525 184.296 412.077 184.648 411.629 184.968C411.181 185.288 410.861 185.48 410.669 185.544C409.453 186.248 408.301 186.92 407.213 187.56C406.189 188.136 405.133 188.68 404.045 189.192C405.517 189.768 407.021 190.6 408.557 191.688C410.093 192.712 411.565 193.832 412.973 195.048C414.381 196.264 415.693 197.448 416.909 198.6C418.125 199.688 419.149 200.584 419.981 201.288ZM388.877 207.24C389.069 208.328 389.325 209.384 389.645 210.408C389.965 211.432 390.349 212.296 390.797 213C390.861 213 390.893 213.032 390.893 213.096C390.957 213.224 390.925 213.288 390.797 213.288C390.669 213.288 390.509 213.224 390.317 213.096C390.189 213.032 390.061 213 389.933 213C389.101 212.488 388.429 211.88 387.917 211.176C387.469 210.408 387.085 209.096 386.765 207.24C386.637 206.536 386.573 205.64 386.573 204.552C386.573 203.464 386.605 202.44 386.669 201.48C386.733 200.456 386.829 199.592 386.957 198.888C387.085 198.184 387.276 197.832 387.533 197.832C387.597 197.832 387.661 197.992 387.725 198.312C387.853 198.632 387.949 199.016 388.013 199.464C388.077 199.848 388.109 200.232 388.109 200.616C388.173 201 388.205 201.256 388.205 201.384C388.333 202.472 388.429 203.496 388.493 204.456C388.557 205.416 388.685 206.344 388.877 207.24ZM430.925 213.288C431.949 213.352 432.717 213.352 433.229 213.288C433.805 213.288 434.541 213.224 435.437 213.096C435.501 213.096 435.661 213.064 435.917 213C436.173 213 436.333 213.032 436.397 213.096C436.461 213.224 436.365 213.384 436.109 213.576C435.917 213.768 435.757 213.896 435.629 213.96C434.605 214.28 433.645 214.504 432.749 214.632C431.917 214.76 430.669 214.728 429.005 214.536C428.429 214.472 427.789 214.344 427.085 214.152C426.381 213.96 425.741 213.736 425.165 213.48C424.589 213.288 424.141 213.096 423.821 212.904C423.501 212.648 423.437 212.456 423.629 212.328C423.757 212.264 424.141 212.328 424.781 212.52C425.485 212.648 425.965 212.744 426.221 212.808C427.117 213 427.949 213.128 428.717 213.192C429.485 213.256 430.221 213.288 430.925 213.288ZM487.532 169.896C487.532 172.84 487.244 175.976 486.668 179.304C486.156 182.568 485.324 185.8 484.172 189C483.084 192.2 481.708 195.24 480.044 198.12C478.38 201 476.396 203.56 474.092 205.8C471.852 207.976 469.292 209.736 466.412 211.08C463.532 212.36 460.364 213 456.908 213C453.708 213 450.924 212.072 448.556 210.216C446.252 208.296 444.364 205.8 442.892 202.728C441.484 199.656 440.492 196.136 439.916 192.168C439.404 188.2 439.34 184.168 439.724 180.072C440.108 175.976 440.908 171.944 442.124 167.976C443.404 164.008 445.132 160.488 447.308 157.416C449.484 154.344 452.108 151.88 455.18 150.024C458.252 148.104 461.772 147.144 465.74 147.144C468.876 147.144 471.5 147.848 473.612 149.256C475.724 150.664 477.42 152.456 478.7 154.632C480.044 156.808 481.004 159.24 481.58 161.928C482.156 164.552 482.444 167.112 482.444 169.608C482.444 172.616 482.188 175.56 481.676 178.44C481.164 181.256 480.268 184.008 478.988 186.696C478.604 187.592 478.38 187.912 478.316 187.656C478.316 187.336 478.38 186.888 478.508 186.312C478.956 184.008 479.34 181.736 479.66 179.496C480.044 177.192 480.236 174.856 480.236 172.488C480.236 170.248 480.012 167.816 479.564 165.192C479.116 162.568 478.348 160.136 477.26 157.896C476.172 155.656 474.668 153.8 472.748 152.328C470.828 150.792 468.396 150.024 465.452 150.024C462.956 150.024 460.62 150.504 458.444 151.464C456.268 152.424 454.284 153.704 452.492 155.304C450.764 156.904 449.228 158.792 447.884 160.968C446.54 163.08 445.388 165.288 444.428 167.592C443.66 169.512 443.02 171.944 442.508 174.888C441.996 177.768 441.708 180.808 441.644 184.008C441.58 187.208 441.772 190.44 442.22 193.704C442.668 196.968 443.5 199.88 444.716 202.44C445.932 205 447.532 207.112 449.516 208.776C451.5 210.376 453.996 211.176 457.004 211.176C460.14 211.176 463.116 210.312 465.932 208.584C468.748 206.792 471.276 204.584 473.516 201.96C475.82 199.272 477.772 196.424 479.372 193.416C480.972 190.344 482.124 187.496 482.828 184.872C483.468 182.568 483.948 180.008 484.268 177.192C484.652 174.312 484.748 171.432 484.556 168.552C484.428 165.608 483.98 162.76 483.212 160.008C482.508 157.256 481.42 154.824 479.948 152.712C478.476 150.536 476.588 148.808 474.284 147.528C472.044 146.184 469.292 145.512 466.028 145.512C461.164 145.512 456.972 146.728 453.452 149.16C449.932 151.592 447.02 154.664 444.716 158.376C442.476 162.088 440.812 166.184 439.724 170.664C438.636 175.144 438.092 179.432 438.092 183.528C438.092 185.448 438.22 187.4 438.476 189.384C438.732 191.304 438.924 192.904 439.052 194.184C439.116 194.696 439.052 194.984 438.86 195.048C438.732 195.048 438.572 194.792 438.38 194.28C438.124 193.448 437.9 192.488 437.708 191.4C437.516 190.248 437.324 189.064 437.132 187.848C437.004 186.568 436.876 185.32 436.748 184.104C436.684 182.824 436.652 181.64 436.652 180.552C436.652 176.072 437.228 171.592 438.38 167.112C439.596 162.568 441.42 158.504 443.852 154.92C446.284 151.336 449.356 148.424 453.068 146.184C456.844 143.88 461.292 142.728 466.412 142.728C470.252 142.728 473.516 143.592 476.204 145.32C478.892 147.048 481.068 149.256 482.732 151.944C484.46 154.568 485.676 157.48 486.38 160.68C487.148 163.88 487.532 166.952 487.532 169.896ZM478.508 170.76C478.508 173.512 478.188 176.424 477.548 179.496C476.908 182.504 475.948 185.48 474.668 188.424C473.452 191.304 471.948 194.024 470.156 196.584C468.364 199.08 466.316 201.224 464.012 203.016C462.924 203.848 461.74 204.552 460.46 205.128C459.244 205.704 457.9 205.992 456.428 205.992C455.148 205.992 454.06 205.736 453.164 205.224C452.332 204.648 451.596 203.88 450.956 202.92C450.444 202.216 450.284 201.864 450.476 201.864C450.668 201.864 451.02 202.12 451.532 202.632C452.108 203.144 452.684 203.592 453.26 203.976C453.836 204.36 454.604 204.552 455.564 204.552C457.356 204.552 459.052 203.944 460.652 202.728C462.316 201.448 463.692 200.168 464.78 198.888C466.444 197.096 467.916 195.112 469.196 192.936C470.476 190.696 471.532 188.392 472.364 186.024C473.26 183.592 473.932 181.16 474.38 178.728C474.828 176.232 475.052 173.768 475.052 171.336C475.052 169.736 474.892 167.976 474.572 166.056C474.316 164.136 473.772 162.344 472.94 160.68C472.172 158.952 471.084 157.512 469.676 156.36C468.332 155.208 466.572 154.632 464.396 154.632C462.028 154.632 459.916 155.144 458.06 156.168C456.204 157.192 454.54 158.504 453.068 160.104C451.596 161.64 450.252 163.4 449.036 165.384C447.884 167.304 446.796 169.192 445.772 171.048C445.58 171.432 445.42 171.656 445.292 171.72C445.228 171.784 445.196 171.752 445.196 171.624C445.132 171.496 445.132 171.304 445.196 171.048C445.9 168.68 446.86 166.344 448.076 164.04C449.292 161.736 450.732 159.688 452.396 157.896C454.124 156.104 456.044 154.664 458.156 153.576C460.268 152.424 462.572 151.848 465.068 151.848C467.436 151.848 469.484 152.488 471.212 153.768C472.94 155.048 474.316 156.648 475.34 158.568C476.428 160.424 477.228 162.472 477.74 164.712C478.252 166.888 478.508 168.904 478.508 170.76ZM461.132 208.296C459.66 209.064 458.092 209.448 456.428 209.448C454.124 209.448 452.14 208.808 450.476 207.528C448.812 206.248 447.404 204.68 446.252 202.824C445.164 200.968 444.364 198.952 443.852 196.776C443.34 194.6 443.084 192.584 443.084 190.728C443.084 190.344 443.116 189.768 443.18 189C443.244 188.232 443.308 187.496 443.372 186.792C443.5 186.024 443.628 185.352 443.756 184.776C443.948 184.2 444.172 183.912 444.428 183.912C444.684 183.912 444.78 184.424 444.716 185.448C444.716 186.408 444.78 187.784 444.908 189.576C444.972 190.984 445.26 192.744 445.772 194.856C446.284 196.968 447.02 199.016 447.98 201C448.94 202.92 450.124 204.584 451.532 205.992C452.94 207.4 454.572 208.104 456.428 208.104C458.028 208.104 459.468 207.976 460.748 207.72C461.388 207.592 461.868 207.528 462.188 207.528C462.508 207.528 462.156 207.784 461.132 208.296ZM524.788 146.472C524.66 147.368 524.244 148.168 523.54 148.872C522.9 149.576 522.132 150.184 521.236 150.696C520.34 151.144 519.38 151.528 518.356 151.848C517.396 152.104 516.5 152.232 515.668 152.232C514.644 152.232 513.428 152.104 512.02 151.848C510.676 151.592 509.364 151.272 508.084 150.888C506.868 150.504 505.812 150.12 504.916 149.736C504.084 149.352 503.668 149 503.668 148.68C503.668 148.552 503.796 148.456 504.052 148.392C504.308 148.328 504.628 148.264 505.012 148.2C505.46 148.136 505.908 148.104 506.356 148.104C506.804 148.104 507.188 148.104 507.508 148.104C508.788 148.104 510.196 148.168 511.732 148.296C513.332 148.424 514.772 148.456 516.052 148.392C517.076 148.392 517.94 148.36 518.644 148.296C519.348 148.232 519.988 148.136 520.564 148.008C521.204 147.816 521.812 147.624 522.388 147.432C522.964 147.176 523.636 146.856 524.404 146.472C524.532 146.344 524.66 146.344 524.788 146.472ZM525.748 143.4C525.748 144.04 525.428 144.584 524.788 145.032C524.212 145.48 523.508 145.864 522.676 146.184C521.908 146.44 521.076 146.664 520.18 146.856C519.348 146.984 518.708 147.048 518.26 147.048C515.892 147.048 513.492 146.792 511.06 146.28C508.628 145.768 506.228 145.512 503.86 145.512C501.044 145.512 498.516 146.184 496.276 147.528C494.036 148.808 492.276 150.632 490.996 153C490.868 153.192 490.708 153.288 490.516 153.288C490.324 153.288 490.292 153.128 490.42 152.808C491.444 149.672 493.076 147.176 495.316 145.32C497.556 143.464 500.468 142.536 504.052 142.536C506.74 142.536 509.396 142.856 512.02 143.496C514.708 144.072 517.396 144.36 520.084 144.36C521.044 144.36 522.036 144.264 523.06 144.072C524.148 143.816 524.82 143.624 525.076 143.496C525.14 143.432 525.268 143.4 525.46 143.4C525.652 143.336 525.748 143.336 525.748 143.4ZM498.58 149.256C498.58 149.384 498.388 149.608 498.004 149.928C497.62 150.248 497.172 150.6 496.66 150.984C496.148 151.304 495.636 151.624 495.124 151.944C494.676 152.2 494.356 152.392 494.164 152.52C493.588 153.032 493.076 153.576 492.628 154.152C492.18 154.664 491.7 155.208 491.188 155.784C491.124 155.784 491.092 155.848 491.092 155.976C491.092 156.04 491.028 156.072 490.9 156.072C490.836 156.072 490.804 155.976 490.804 155.784C490.804 155.016 491.028 154.216 491.476 153.384C491.924 152.552 492.468 151.816 493.108 151.176C493.812 150.472 494.58 149.928 495.412 149.544C496.308 149.096 497.172 148.872 498.004 148.872C498.388 148.872 498.58 149 498.58 149.256ZM520.372 166.248C520.436 169.384 520.116 172.68 519.412 176.136C518.708 179.528 517.716 182.984 516.436 186.504C515.156 189.96 513.684 193.384 512.02 196.776C510.42 200.168 508.724 203.368 506.932 206.376C505.14 209.384 503.348 212.168 501.556 214.728C499.764 217.288 498.132 219.464 496.66 221.256C496.596 221.32 496.5 221.416 496.372 221.544C496.244 221.736 496.116 221.896 495.988 222.024C495.86 222.216 495.732 222.312 495.604 222.312C495.476 222.376 495.412 222.28 495.412 222.024C495.348 221.832 495.7 220.936 496.468 219.336C497.3 217.8 498.292 215.88 499.444 213.576C500.66 211.272 501.972 208.776 503.38 206.088C504.852 203.4 506.228 200.84 507.508 198.408C508.788 195.912 509.908 193.736 510.868 191.88C511.828 189.96 512.436 188.648 512.692 187.944C513.396 186.024 514.1 184.008 514.804 181.896C515.572 179.72 516.244 177.48 516.82 175.176C517.46 172.872 517.94 170.504 518.26 168.072C518.644 165.64 518.804 163.176 518.74 160.68C518.74 160.168 518.772 159.912 518.836 159.912C518.964 159.912 519.06 159.976 519.124 160.104C519.188 160.168 519.284 160.424 519.412 160.872C519.604 161.512 519.796 162.44 519.988 163.656C520.244 164.808 520.372 165.672 520.372 166.248ZM512.596 156.456C512.084 161.704 511.284 166.44 510.196 170.664C509.108 174.824 507.892 178.6 506.548 181.992C505.268 185.384 503.892 188.456 502.42 191.208C501.012 193.96 499.732 196.488 498.58 198.792C497.364 201.224 496.212 203.656 495.124 206.088C494.1 208.52 493.172 210.984 492.34 213.48C491.572 216.04 490.932 218.664 490.42 221.352C489.972 224.04 489.748 226.888 489.748 229.896C489.748 230.6 489.684 230.888 489.556 230.76C489.428 230.76 489.332 230.568 489.268 230.184C489.14 229.864 489.012 229.448 488.884 228.936C488.756 228.488 488.66 228.04 488.596 227.592C488.468 227.144 488.404 226.76 488.404 226.44C488.084 223.496 488.116 220.712 488.5 218.088C488.82 215.528 489.332 213.064 490.036 210.696C490.804 208.264 491.7 205.928 492.724 203.688C493.748 201.448 494.74 199.176 495.7 196.872C496.724 194.44 497.972 191.624 499.444 188.424C500.98 185.224 502.484 181.864 503.956 178.344C505.428 174.76 506.772 171.112 507.988 167.4C509.204 163.624 510.036 159.976 510.484 156.456C508.052 156.328 505.524 156.072 502.9 155.688C500.34 155.24 497.94 154.696 495.7 154.056C495.572 153.992 495.444 153.928 495.316 153.864C495.188 153.8 495.124 153.704 495.124 153.576C495.06 153.384 495.188 153.224 495.508 153.096C495.892 152.968 496.116 152.904 496.18 152.904C498.228 152.392 500.148 152.136 501.94 152.136C504.372 152.136 506.772 152.392 509.14 152.904C511.508 153.352 513.908 153.576 516.34 153.576C517.108 153.576 517.908 153.512 518.74 153.384C519.636 153.192 520.244 153.032 520.564 152.904C520.82 152.776 520.948 152.808 520.948 153C520.948 153.128 520.916 153.256 520.852 153.384C520.276 154.088 519.572 154.664 518.74 155.112C517.972 155.496 517.14 155.816 516.244 156.072C516.436 156.904 516.564 157.672 516.628 158.376C516.692 159.016 516.756 159.592 516.82 160.104C517.204 163.368 517.012 166.824 516.244 170.472C515.54 174.056 514.484 177.672 513.076 181.32C511.668 184.904 510.004 188.456 508.084 191.976C506.164 195.432 504.212 198.632 502.228 201.576C501.716 202.28 501.332 202.504 501.076 202.248C500.884 201.992 500.948 201.448 501.268 200.616C501.652 199.592 502.26 198.184 503.092 196.392C503.924 194.536 504.788 192.648 505.684 190.728C506.58 188.744 507.412 186.888 508.18 185.16C508.948 183.432 509.46 182.184 509.716 181.416C511.38 176.232 512.564 171.56 513.268 167.4C514.036 163.176 514.356 159.496 514.228 156.36C513.908 156.424 513.62 156.456 513.364 156.456C513.108 156.456 512.852 156.456 512.596 156.456ZM495.796 212.52C495.796 212.904 495.7 213.576 495.508 214.536C495.316 215.56 495.092 216.648 494.836 217.8C494.58 218.952 494.324 220.04 494.068 221.064C493.812 222.152 493.652 222.952 493.588 223.464C493.268 224.808 493.012 226.152 492.82 227.496C492.692 228.84 492.564 230.248 492.436 231.72C492.436 231.848 492.404 232.04 492.34 232.296C492.34 232.552 492.244 232.68 492.052 232.68C491.924 232.616 491.828 232.424 491.764 232.104C491.7 231.784 491.636 231.56 491.572 231.432C491.444 230.856 491.284 230.088 491.092 229.128C490.964 228.232 490.9 227.528 490.9 227.016C490.9 225.416 491.06 223.72 491.38 221.928C491.7 220.2 492.084 218.6 492.532 217.128C492.98 215.656 493.46 214.44 493.972 213.48C494.484 212.52 494.964 212.072 495.412 212.136C495.54 212.2 495.604 212.264 495.604 212.328C495.668 212.392 495.732 212.456 495.796 212.52ZM568.163 146.472C568.611 146.152 568.803 146.152 568.739 146.472C568.675 146.728 568.579 146.952 568.451 147.144C567.875 148.04 567.107 148.808 566.147 149.448C565.251 150.088 564.259 150.6 563.171 150.984C562.147 151.368 561.123 151.656 560.099 151.848C559.075 152.04 558.179 152.136 557.411 152.136C555.427 152.136 553.379 151.944 551.267 151.56C549.155 151.176 547.043 150.76 544.931 150.312C544.803 150.312 544.579 150.248 544.259 150.12C543.939 149.992 543.779 149.864 543.779 149.736C543.651 149.544 543.747 149.384 544.067 149.256C544.451 149.128 544.707 149.064 544.835 149.064C545.283 148.936 545.859 148.84 546.562 148.776C547.331 148.648 548.131 148.552 548.963 148.488C549.795 148.424 550.563 148.392 551.267 148.392C552.035 148.392 552.675 148.392 553.187 148.392C554.595 148.52 556.035 148.584 557.507 148.584C559.043 148.584 560.483 148.52 561.827 148.392C563.171 148.264 564.387 148.04 565.475 147.72C566.627 147.4 567.523 146.984 568.163 146.472ZM569.507 143.304C569.827 143.176 569.923 143.208 569.795 143.4C569.667 143.592 569.571 143.72 569.507 143.784C567.843 145.256 566.019 146.184 564.035 146.568C562.051 146.952 559.971 147.112 557.795 147.048C555.683 146.92 553.475 146.728 551.171 146.472C548.931 146.152 546.659 146.056 544.355 146.184C543.011 146.248 541.603 146.504 540.131 146.952C538.659 147.4 537.251 148.04 535.907 148.872C534.627 149.64 533.443 150.664 532.355 151.944C531.331 153.16 530.531 154.568 529.955 156.168C529.827 156.424 529.731 156.552 529.667 156.552C529.667 156.552 529.635 156.52 529.571 156.456C529.571 156.392 529.571 156.296 529.571 156.168C529.571 156.04 529.571 155.944 529.571 155.88C529.955 153.576 530.659 151.624 531.683 150.024C532.707 148.424 533.923 147.144 535.331 146.184C536.739 145.16 538.275 144.424 539.939 143.976C541.603 143.528 543.267 143.272 544.931 143.208C547.235 143.144 549.475 143.24 551.651 143.496C553.891 143.688 556.035 143.88 558.083 144.072C560.195 144.264 562.211 144.36 564.131 144.36C566.051 144.296 567.843 143.944 569.507 143.304ZM537.923 150.792C538.051 150.984 537.859 151.304 537.347 151.752C536.835 152.2 536.451 152.488 536.195 152.616C535.683 153 535.203 153.384 534.755 153.768C534.307 154.088 533.891 154.504 533.507 155.016C532.995 155.592 532.547 156.168 532.163 156.744C531.843 157.32 531.523 157.96 531.203 158.664C531.075 159.112 530.947 159.336 530.819 159.336C530.755 159.336 530.723 159.112 530.723 158.664V157.992C530.851 157.032 531.043 156.168 531.299 155.4C531.555 154.632 532.003 153.832 532.643 153C532.899 152.616 533.315 152.264 533.891 151.944C534.531 151.56 535.139 151.24 535.715 150.984C536.291 150.728 536.803 150.568 537.251 150.504C537.699 150.44 537.923 150.536 537.923 150.792ZM563.843 152.904C564.163 152.776 564.291 152.808 564.227 153C564.227 153.128 564.163 153.256 564.035 153.384C563.203 154.344 561.987 155.048 560.387 155.496C558.851 155.944 557.187 156.264 555.395 156.456C553.603 156.584 551.811 156.616 550.019 156.552C548.291 156.488 546.851 156.456 545.699 156.456C546.083 157.736 546.243 159.304 546.179 161.16C546.179 162.952 546.019 164.904 545.699 167.016C545.443 169.064 545.091 171.144 544.643 173.256C544.195 175.368 543.747 177.352 543.299 179.208C545.027 179.336 546.723 179.528 548.387 179.784C550.051 179.976 551.651 180.136 553.187 180.264C554.723 180.328 556.195 180.328 557.603 180.264C559.011 180.136 560.387 179.816 561.731 179.304C562.051 179.176 562.211 179.208 562.211 179.4C562.211 179.592 562.147 179.752 562.019 179.88C560.483 181.416 558.787 182.376 556.931 182.76C555.075 183.144 553.123 183.272 551.075 183.144C549.027 183.016 546.947 182.792 544.835 182.472C542.723 182.152 540.611 182.024 538.499 182.088C537.155 182.152 535.811 182.376 534.467 182.76C533.123 183.144 531.811 183.72 530.531 184.488C529.315 185.256 528.163 186.216 527.075 187.368C526.051 188.456 525.219 189.768 524.579 191.304C524.515 191.56 524.419 191.688 524.291 191.688C524.163 191.688 524.099 191.592 524.099 191.4C524.099 191.144 524.131 190.952 524.195 190.824C524.515 188.968 525.059 187.432 525.827 186.216C526.595 185 527.523 183.944 528.611 183.048C529.699 178.44 530.915 173.832 532.259 169.224C533.667 164.616 534.819 160.264 535.715 156.168C535.651 156.168 535.427 156.168 535.043 156.168C534.723 156.104 534.562 156.008 534.562 155.88C534.562 155.752 534.659 155.624 534.851 155.496C535.043 155.368 535.235 155.24 535.427 155.112C538.115 153.832 540.867 153.16 543.683 153.096C546.499 152.968 549.378 153.032 552.323 153.288C554.179 153.416 556.035 153.544 557.891 153.672C559.811 153.8 561.795 153.544 563.843 152.904ZM542.723 156.456C542.787 158.056 542.787 159.56 542.723 160.968C542.659 162.376 542.467 163.624 542.147 164.712C541.571 167.016 540.931 169.416 540.227 171.912C539.523 174.408 538.723 176.84 537.827 179.208C538.083 179.144 538.371 179.112 538.691 179.112C539.011 179.112 539.331 179.112 539.651 179.112L541.091 174.6C541.987 171.784 542.787 168.872 543.491 165.864C544.259 162.856 544.739 159.72 544.931 156.456H542.723ZM538.595 156.36C538.083 160.2 537.155 164.136 535.811 168.168C534.467 172.2 533.251 176.328 532.163 180.552C532.675 180.36 533.123 180.2 533.507 180.072C533.955 179.88 534.371 179.72 534.755 179.592C535.075 178.312 535.395 177.096 535.715 175.944C536.035 174.728 536.355 173.672 536.674 172.776C536.803 172.392 537.027 171.656 537.347 170.568C537.667 169.48 538.019 168.168 538.403 166.632C538.787 165.096 539.171 163.432 539.555 161.64C539.939 159.848 540.227 158.088 540.419 156.36H538.595ZM560.867 182.472C561.187 182.216 561.315 182.248 561.251 182.568C561.251 182.824 561.187 183.016 561.059 183.144C560.547 184.04 559.875 184.84 559.043 185.544C558.275 186.248 557.443 186.824 556.547 187.272C555.651 187.656 554.723 187.976 553.763 188.232C552.867 188.424 552.067 188.488 551.363 188.424C549.379 188.296 547.299 188.04 545.123 187.656C542.947 187.208 540.867 186.76 538.883 186.312C538.755 186.248 538.531 186.184 538.211 186.12C537.955 185.992 537.827 185.832 537.827 185.64C537.763 185.512 537.859 185.384 538.115 185.256C538.435 185.064 538.659 184.968 538.787 184.968C539.235 184.84 539.779 184.744 540.419 184.68C541.123 184.616 541.827 184.552 542.531 184.488C543.299 184.424 544.003 184.424 544.643 184.488C545.347 184.488 545.923 184.52 546.371 184.584C547.523 184.712 548.771 184.776 550.115 184.776C551.523 184.776 552.899 184.68 554.243 184.488C555.651 184.296 556.931 184.04 558.083 183.72C559.235 183.4 560.163 182.984 560.867 182.472ZM562.979 200.52C563.107 200.456 563.171 200.488 563.171 200.616C563.171 200.744 563.139 200.872 563.075 201C561.667 202.536 560.099 203.496 558.371 203.88C556.707 204.264 554.947 204.424 553.091 204.36C551.235 204.232 549.347 203.976 547.427 203.592C545.507 203.208 543.619 203.016 541.763 203.016C539.395 202.952 536.963 203.496 534.467 204.648C532.035 205.8 529.987 207.784 528.323 210.6C528.131 210.856 528.003 210.984 527.939 210.984C527.875 210.984 527.843 210.888 527.843 210.696C527.907 210.504 527.939 210.376 527.939 210.312C528.195 209.608 528.419 209.064 528.611 208.68C528.867 208.296 529.123 207.848 529.379 207.336C528.483 205.544 527.843 203.752 527.459 201.96C527.075 200.104 526.851 198.184 526.787 196.2C526.787 194.728 526.915 193.64 527.171 192.936C527.427 192.232 528.291 191.496 529.763 190.728C532.195 189.448 534.787 188.808 537.539 188.808C540.291 188.808 543.043 188.968 545.795 189.288C547.587 189.48 549.379 189.64 551.171 189.768C552.963 189.832 554.819 189.544 556.739 188.904C557.059 188.776 557.187 188.84 557.123 189.096C557.059 189.288 556.963 189.448 556.835 189.576C556.003 190.6 554.851 191.304 553.379 191.688C551.907 192.072 550.339 192.328 548.675 192.456C547.011 192.52 545.411 192.52 543.875 192.456C542.339 192.392 541.123 192.392 540.227 192.456H539.651C539.203 193.992 538.723 195.464 538.211 196.872C537.763 198.216 537.315 199.528 536.867 200.808C537.827 200.488 538.723 200.264 539.555 200.136C540.451 199.944 541.379 199.88 542.339 199.944C544.195 200.008 546.051 200.2 547.906 200.52C549.763 200.84 551.555 201.128 553.283 201.384C555.075 201.576 556.771 201.672 558.371 201.672C560.035 201.608 561.571 201.224 562.979 200.52ZM536.387 192.36C536.003 192.296 535.395 192.232 534.562 192.168C533.795 192.04 532.931 192.04 531.971 192.168C531.331 192.232 530.787 192.488 530.339 192.936C529.891 193.384 529.635 193.928 529.571 194.568C529.443 196.488 529.475 198.344 529.667 200.136C529.859 201.864 530.179 203.656 530.627 205.512L531.779 204.072C531.715 203.304 531.683 202.472 531.683 201.576C531.683 200.68 531.715 199.88 531.779 199.176C531.907 198.408 532.035 197.8 532.163 197.352C532.291 196.904 532.451 196.68 532.643 196.68C532.771 196.68 532.867 196.84 532.931 197.16C532.995 197.48 533.059 197.832 533.123 198.216C533.187 198.6 533.219 198.984 533.219 199.368C533.283 199.752 533.315 200.04 533.315 200.232C533.379 200.616 533.411 201 533.411 201.384C533.475 201.704 533.539 202.056 533.603 202.44C533.923 202.248 534.211 202.056 534.467 201.864C534.723 201.672 535.011 201.512 535.331 201.384C535.395 198.504 535.747 195.496 536.387 192.36ZM562.307 203.688C562.307 203.88 562.243 204.104 562.115 204.36C561.731 205.256 561.187 206.056 560.483 206.76C559.779 207.4 559.011 207.944 558.179 208.392C557.347 208.84 556.483 209.192 555.587 209.448C554.755 209.64 554.019 209.736 553.379 209.736C551.139 209.736 549.091 209.48 547.234 208.968C545.443 208.456 543.651 207.88 541.859 207.24C541.731 207.176 541.539 207.08 541.283 206.952C541.027 206.824 540.867 206.664 540.803 206.472C540.739 206.344 540.867 206.216 541.187 206.088C541.507 205.96 541.731 205.896 541.859 205.896C542.243 205.832 542.723 205.8 543.299 205.8C543.939 205.736 544.579 205.704 545.219 205.704C545.923 205.704 546.595 205.736 547.234 205.8C547.875 205.8 548.419 205.8 548.867 205.8C549.955 205.864 551.139 205.928 552.419 205.992C553.699 205.992 554.915 205.928 556.067 205.8C557.283 205.608 558.403 205.352 559.427 205.032C560.515 204.712 561.347 204.264 561.923 203.688C562.115 203.496 562.243 203.496 562.307 203.688ZM532.451 186.408C532.451 186.6 532.227 186.888 531.779 187.272C531.395 187.656 530.915 188.072 530.339 188.52C529.827 188.968 529.315 189.384 528.803 189.768C528.355 190.152 528.067 190.408 527.939 190.536C527.427 191.048 526.947 191.56 526.499 192.072C526.051 192.52 525.667 193.096 525.347 193.8C525.027 194.376 524.867 194.472 524.867 194.088C524.867 193.64 524.899 193.32 524.963 193.128C525.091 192.616 525.283 191.944 525.539 191.112C525.859 190.216 526.435 189.352 527.267 188.52C527.651 188.2 528.099 187.88 528.611 187.56C529.187 187.176 529.731 186.888 530.243 186.696C530.819 186.44 531.299 186.28 531.683 186.216C532.131 186.152 532.387 186.216 532.451 186.408ZM558.755 210.216C558.819 210.472 558.723 210.664 558.467 210.792C557.699 211.432 556.611 211.912 555.203 212.232C553.859 212.488 552.387 212.68 550.786 212.808C549.251 212.936 547.747 213 546.275 213C544.803 213 543.619 213 542.723 213C541.123 213 539.427 212.904 537.635 212.712C535.907 212.456 534.403 212.168 533.123 211.848C532.995 211.784 532.803 211.752 532.547 211.752C532.355 211.688 532.259 211.592 532.259 211.464C532.259 211.336 532.355 211.24 532.547 211.176C532.803 211.048 532.995 210.952 533.123 210.888C535.555 210.12 538.019 209.8 540.515 209.928C543.075 209.992 545.635 210.184 548.195 210.504C549.795 210.76 551.395 210.952 552.995 211.08C554.659 211.208 556.387 210.92 558.179 210.216C558.563 210.088 558.755 210.088 558.755 210.216ZM536.003 206.952C536.003 207.144 535.779 207.4 535.331 207.72C534.947 207.976 534.499 208.264 533.987 208.584C533.475 208.904 532.963 209.224 532.451 209.544C532.003 209.8 531.683 209.992 531.491 210.12C530.979 210.568 530.531 210.952 530.147 211.272C529.763 211.592 529.379 212.008 528.995 212.52C528.675 212.84 528.451 213 528.323 213H528.227V212.904C528.227 212.904 528.227 212.84 528.227 212.712C528.547 211.752 528.867 210.952 529.187 210.312C529.571 209.672 530.211 209 531.107 208.296C531.491 208.04 531.939 207.784 532.451 207.528C532.963 207.208 533.475 206.984 533.987 206.856C534.499 206.664 534.947 206.568 535.331 206.568C535.715 206.568 535.939 206.696 536.003 206.952ZM594.07 208.968C596.374 208.584 598.582 207.88 600.694 206.856C602.87 205.832 604.822 204.52 606.55 202.92C606.678 202.856 606.934 202.632 607.318 202.248C607.702 201.864 607.958 201.736 608.086 201.864C608.214 201.992 608.182 202.184 607.99 202.44C607.798 202.696 607.638 202.92 607.51 203.112C606.23 204.968 604.534 206.504 602.422 207.72C600.374 208.872 598.23 209.8 595.99 210.504C594.134 211.016 592.15 211.208 590.038 211.08C587.926 210.888 585.942 210.344 584.086 209.448C583.51 209.192 583.158 209 583.03 208.872C582.902 208.68 582.902 208.552 583.03 208.488C583.158 208.424 583.35 208.392 583.606 208.392C583.926 208.392 584.214 208.424 584.47 208.488C585.174 208.616 585.974 208.744 586.87 208.872C587.83 208.936 588.758 209 589.654 209.064C590.614 209.064 591.478 209.064 592.246 209.064C593.014 209.064 593.622 209.032 594.07 208.968ZM581.206 180.744C580.886 182.984 580.726 185.192 580.726 187.368C580.726 189.48 580.854 191.496 581.11 193.416C581.43 195.272 581.878 196.936 582.454 198.408C583.094 199.88 583.862 201.096 584.758 202.056C585.782 203.08 587.03 203.88 588.502 204.456C590.038 204.968 591.67 205.224 593.398 205.224C595.19 205.224 597.046 204.968 598.966 204.456C600.95 203.944 602.902 203.144 604.822 202.056C605.206 201.8 605.462 201.736 605.59 201.864C605.718 201.992 605.654 202.152 605.398 202.344C605.206 202.472 605.014 202.6 604.822 202.728C603.158 204.008 601.398 205.032 599.542 205.8C597.686 206.568 595.798 207.048 593.878 207.24C592.022 207.432 590.198 207.336 588.406 206.952C586.678 206.504 585.11 205.704 583.702 204.552C582.358 203.4 581.27 202.024 580.438 200.424C579.606 198.76 578.966 196.968 578.518 195.048C578.134 193.064 577.91 191.016 577.846 188.904C577.782 186.792 577.846 184.712 578.038 182.664C578.294 179.4 578.934 176.104 579.958 172.776C580.982 169.448 582.326 166.376 583.99 163.56C585.718 160.744 587.766 158.28 590.134 156.168C592.502 154.056 595.158 152.584 598.102 151.752C599.574 151.368 601.078 151.208 602.614 151.272C604.15 151.336 605.558 151.624 606.838 152.136C608.182 152.648 609.334 153.416 610.294 154.44C611.254 155.4 611.894 156.584 612.214 157.992C612.534 159.528 612.406 161.032 611.83 162.504C611.254 163.912 610.454 165.16 609.43 166.248C608.406 167.272 607.254 168.008 605.974 168.456C604.694 168.904 603.478 168.904 602.326 168.456C602.262 168.456 602.198 168.36 602.134 168.168C602.134 167.976 602.262 167.912 602.518 167.976C603.286 168.104 604.15 167.944 605.11 167.496C606.134 166.984 607.03 166.312 607.798 165.48C608.63 164.648 609.27 163.656 609.718 162.504C610.23 161.352 610.39 160.168 610.198 158.952C610.006 158.056 609.59 157.288 608.95 156.648C608.374 155.944 607.606 155.4 606.646 155.016C605.686 154.568 604.598 154.28 603.382 154.152C602.23 154.024 601.014 154.088 599.734 154.344C597.302 154.792 595.03 155.88 592.918 157.608C590.87 159.272 589.046 161.32 587.446 163.752C585.846 166.184 584.502 168.904 583.414 171.912C582.326 174.856 581.59 177.8 581.206 180.744ZM588.79 212.52C589.494 212.584 590.198 212.616 590.902 212.616C591.67 212.616 592.054 212.712 592.054 212.904C592.054 212.968 591.926 213 591.67 213C591.414 213.064 591.126 213.096 590.806 213.096C590.55 213.096 590.262 213.096 589.942 213.096C589.622 213.096 589.43 213.096 589.366 213.096C587.382 213.096 585.43 212.808 583.51 212.232C581.59 211.656 579.798 210.856 578.134 209.832C576.534 208.744 575.094 207.432 573.814 205.896C572.534 204.36 571.574 202.6 570.934 200.616C569.654 196.712 568.918 192.904 568.726 189.192C568.534 185.48 568.694 181.832 569.206 178.248C569.462 176.2 569.942 173.896 570.646 171.336C571.414 168.712 572.406 166.056 573.622 163.368C574.902 160.68 576.47 158.024 578.326 155.4C580.246 152.776 582.518 150.376 585.142 148.2C587.894 145.896 590.934 144.36 594.262 143.592C597.654 142.824 600.886 142.696 603.958 143.208C607.03 143.72 609.75 144.808 612.118 146.472C614.486 148.072 616.054 150.12 616.822 152.616C616.886 152.744 616.95 153.032 617.014 153.48C617.078 153.864 617.046 154.12 616.918 154.248C616.854 154.312 616.758 154.152 616.63 153.768C616.502 153.384 616.374 153.128 616.246 153C613.558 149.352 610.518 147.048 607.126 146.088C603.734 145.064 600.374 144.968 597.046 145.8C593.718 146.568 590.582 148.04 587.638 150.216C584.694 152.328 582.358 154.696 580.63 157.32C577.622 161.864 575.318 166.696 573.718 171.816C572.182 176.936 571.478 182.216 571.606 187.656C571.67 190.152 571.926 192.776 572.374 195.528C572.886 198.28 573.846 200.904 575.254 203.4C576.662 205.96 578.582 208.104 581.014 209.832C583.51 211.496 586.102 212.392 588.79 212.52ZM574.966 176.424C575.478 173.032 576.278 169.736 577.366 166.536C578.518 163.336 579.99 160.424 581.782 157.8C583.638 155.112 585.91 152.808 588.598 150.888C591.286 148.968 594.454 147.624 598.102 146.856C599.382 146.6 600.822 146.504 602.422 146.568C604.022 146.568 605.622 146.856 607.222 147.432C608.822 147.944 610.294 148.744 611.638 149.832C613.046 150.92 614.198 152.424 615.094 154.344C615.926 156.2 616.214 158.024 615.958 159.816C615.702 161.608 615.158 163.24 614.326 164.712C613.494 166.12 612.47 167.304 611.254 168.264C610.038 169.224 608.854 169.768 607.702 169.896C606.998 170.024 606.614 170.024 606.55 169.896C606.486 169.704 606.838 169.48 607.606 169.224C608.822 168.84 610.038 167.88 611.254 166.344C612.534 164.744 613.302 162.728 613.558 160.296C613.686 159.08 613.526 157.896 613.078 156.744C612.63 155.528 611.99 154.472 611.158 153.576C610.326 152.68 609.334 151.912 608.182 151.272C607.03 150.632 605.814 150.216 604.534 150.024C601.782 149.64 599.254 149.832 596.95 150.6C594.646 151.368 592.63 152.36 590.902 153.576C589.238 154.728 587.862 155.88 586.774 157.032C585.75 158.184 585.11 158.952 584.854 159.336C582.87 161.832 581.142 164.552 579.67 167.496C578.198 170.376 576.982 173.416 576.022 176.616C576.022 176.68 575.958 176.904 575.83 177.288C575.766 177.672 575.67 178.088 575.542 178.536C575.478 178.92 575.382 179.304 575.254 179.688C575.126 180.008 575.03 180.168 574.966 180.168C574.838 180.168 574.774 179.976 574.774 179.592C574.774 179.208 574.774 178.824 574.774 178.44C574.774 177.992 574.806 177.576 574.87 177.192C574.934 176.808 574.966 176.552 574.966 176.424ZM642.956 164.232C642.06 167.688 640.94 171.272 639.596 174.984C638.316 178.696 636.972 182.216 635.564 185.544C635.5 185.672 635.34 185.992 635.084 186.504C634.828 186.952 634.636 187.144 634.508 187.08C634.316 187.08 634.22 186.824 634.22 186.312C634.284 185.736 634.348 185.352 634.412 185.16C634.476 184.392 634.604 183.432 634.796 182.28C634.988 181.128 635.18 179.944 635.372 178.728C635.628 177.512 635.884 176.328 636.14 175.176C636.46 174.024 636.748 173.032 637.004 172.2C637.132 171.944 637.324 171.304 637.58 170.28C637.836 169.256 638.092 168.04 638.348 166.632C638.668 165.16 638.988 163.56 639.308 161.832C639.628 160.104 639.916 158.408 640.172 156.744L639.02 156.456C638.7 158.696 638.22 161 637.58 163.368C637.004 165.672 636.332 168.008 635.564 170.376C634.86 172.68 634.156 175.048 633.452 177.48C632.748 179.848 632.108 182.216 631.532 184.584C631.02 186.824 630.636 189.16 630.38 191.592C630.124 194.024 630.028 196.488 630.092 198.984C630.156 201.416 630.444 203.816 630.956 206.184C631.468 208.488 632.236 210.632 633.26 212.616C633.452 213.064 633.516 213.288 633.452 213.288C633.324 213.288 633.228 213.256 633.164 213.192L632.972 213C631.18 210.888 629.836 208.616 628.94 206.184C628.108 203.688 627.564 201.128 627.308 198.504C627.116 195.88 627.18 193.224 627.5 190.536C627.82 187.848 628.268 185.224 628.844 182.664C629.932 177.928 631.212 173.384 632.684 169.032C634.156 164.616 635.404 160.296 636.428 156.072C632.588 155.432 628.972 154.856 625.58 154.344C622.252 153.768 619.148 153.768 616.268 154.344C616.076 154.344 615.98 154.312 615.98 154.248C615.98 154.12 616.012 154.056 616.076 154.056C616.204 153.992 616.3 153.928 616.364 153.864C618.54 152.584 620.844 151.88 623.276 151.752C625.772 151.624 628.332 151.752 630.956 152.136C633.644 152.456 636.364 152.904 639.116 153.48C641.932 153.992 644.748 154.28 647.564 154.344C649.292 154.408 651.084 154.28 652.94 153.96C654.86 153.576 656.684 153.032 658.412 152.328C660.204 151.56 661.804 150.568 663.212 149.352C664.684 148.136 665.868 146.696 666.764 145.032C666.892 144.712 667.02 144.552 667.148 144.552V144.84V145.032C666.444 147.464 665.356 149.48 663.884 151.08C662.412 152.616 660.716 153.864 658.796 154.824C656.94 155.784 654.924 156.456 652.748 156.84C650.636 157.16 648.556 157.288 646.508 157.224C646.828 159.208 646.828 161.512 646.508 164.136C646.252 166.76 645.836 169.416 645.26 172.104C644.684 174.792 644.076 177.352 643.436 179.784C642.796 182.152 642.284 184.072 641.9 185.544C641.132 188.616 640.236 191.752 639.212 194.952C638.188 198.152 637.26 200.968 636.428 203.4C636.3 203.72 636.14 204.008 635.948 204.264C635.82 204.52 635.692 204.616 635.564 204.552C635.436 204.488 635.372 204.328 635.372 204.072C635.436 203.752 635.468 203.432 635.468 203.112C635.66 198.312 636.364 193.512 637.58 188.712C638.796 183.912 640.108 179.08 641.516 174.216C642.284 171.528 643.02 168.808 643.724 166.056C644.492 163.304 645.036 160.36 645.356 157.224C645.036 157.16 644.748 157.128 644.492 157.128C644.3 157.128 644.044 157.128 643.724 157.128C643.724 158.408 643.66 159.656 643.532 160.872C643.468 162.088 643.276 163.208 642.956 164.232ZM645.548 143.784C648.044 144.104 650.572 144.36 653.132 144.552C655.692 144.744 657.9 144.84 659.756 144.84C660.396 144.84 660.716 144.936 660.716 145.128C660.716 145.384 660.396 145.608 659.756 145.8C656.492 147.08 653.036 147.656 649.388 147.528C645.804 147.4 642.156 147.048 638.444 146.472C636.204 146.152 633.9 145.832 631.532 145.512C629.164 145.192 626.604 145.192 623.852 145.512C623.596 145.576 623.468 145.544 623.468 145.416C623.468 145.288 623.532 145.192 623.66 145.128C623.788 145.064 623.916 144.968 624.044 144.84C625.26 143.944 626.828 143.368 628.748 143.112C630.668 142.792 632.652 142.664 634.7 142.728C636.812 142.728 638.828 142.856 640.748 143.112C642.668 143.368 644.268 143.592 645.548 143.784ZM631.148 146.76C633.836 147.144 636.556 147.624 639.308 148.2C642.124 148.776 644.844 149.416 647.468 150.12C647.596 150.248 647.852 150.376 648.236 150.504C648.684 150.568 648.908 150.696 648.908 150.888C648.908 151.016 648.716 151.112 648.332 151.176C647.948 151.24 647.66 151.336 647.468 151.464C646.892 151.592 646.156 151.656 645.26 151.656C644.428 151.656 643.532 151.656 642.572 151.656C641.676 151.592 640.78 151.528 639.884 151.464C638.988 151.4 638.22 151.304 637.58 151.176C637.132 151.112 636.012 150.984 634.22 150.792C632.492 150.6 630.572 150.472 628.46 150.408C626.348 150.344 624.3 150.376 622.316 150.504C620.396 150.568 619.02 150.824 618.188 151.272C617.932 151.4 617.772 151.464 617.708 151.464H617.612C617.612 151.208 617.74 150.952 617.996 150.696C618.636 149.864 619.5 149.16 620.588 148.584C621.74 148.008 622.924 147.56 624.14 147.24C625.356 146.92 626.572 146.728 627.788 146.664C629.068 146.6 630.188 146.632 631.148 146.76ZM634.316 206.184C634.508 207.272 634.732 208.36 634.988 209.448C635.308 210.536 635.692 211.592 636.14 212.616C636.396 213.128 636.428 213.384 636.236 213.384C636.108 213.384 635.916 213.32 635.66 213.192C635.532 213.128 635.436 213.032 635.372 212.904C634.54 211.944 633.868 211.048 633.356 210.216C632.908 209.384 632.524 208.04 632.204 206.184C632.076 205.48 631.98 204.584 631.916 203.496C631.916 202.408 631.948 201.352 632.012 200.328C632.076 199.304 632.172 198.44 632.3 197.736C632.428 197.032 632.62 196.68 632.876 196.68C632.94 196.68 633.004 196.84 633.068 197.16C633.196 197.48 633.292 197.864 633.356 198.312C633.42 198.696 633.484 199.112 633.548 199.56C633.612 199.944 633.644 200.2 633.644 200.328C633.772 201.416 633.868 202.44 633.932 203.4C634.06 204.36 634.188 205.288 634.316 206.184ZM662.156 146.088C663.564 144.872 664.748 143.56 665.708 142.152C665.836 141.896 665.964 141.768 666.092 141.768C666.156 141.768 666.188 141.992 666.188 142.44C666.188 142.696 666.156 142.92 666.092 143.112C665.836 144.2 665.548 145.064 665.228 145.704C664.908 146.344 664.14 147.112 662.924 148.008C662.476 148.392 661.868 148.776 661.1 149.16C660.332 149.48 659.596 149.768 658.892 150.024C658.188 150.28 657.548 150.44 656.972 150.504C656.46 150.504 656.172 150.376 656.108 150.12C656.108 150.056 656.204 149.96 656.396 149.832C656.588 149.64 656.812 149.448 657.068 149.256C657.388 149.064 657.676 148.904 657.932 148.776C658.188 148.584 658.38 148.456 658.508 148.392C659.148 148.072 659.756 147.72 660.332 147.336C660.972 146.952 661.58 146.536 662.156 146.088ZM686.363 145.128C687.643 145.128 689.115 145.384 690.779 145.896C692.443 146.344 693.787 147.112 694.811 148.2C695.515 148.84 695.419 149.032 694.523 148.776C693.627 148.648 692.699 148.456 691.739 148.2C690.843 147.88 689.851 147.72 688.763 147.72C684.795 147.656 681.915 148.808 680.123 151.176C678.331 153.48 677.307 156.424 677.051 160.008C676.859 162.504 676.891 165 677.147 167.496C677.467 169.928 677.819 172.36 678.203 174.792C678.587 177.224 678.907 179.656 679.163 182.088C679.483 184.52 679.515 186.984 679.259 189.48C679.195 190.184 679.099 190.6 678.971 190.728C678.907 190.856 678.811 190.824 678.683 190.632C678.619 190.44 678.523 190.184 678.395 189.864C678.331 189.48 678.267 189.16 678.203 188.904C677.819 186.344 677.339 183.784 676.763 181.224C676.187 178.6 675.643 175.976 675.131 173.352C674.619 170.728 674.203 168.104 673.883 165.48C673.627 162.856 673.627 160.2 673.883 157.512C674.075 155.784 674.491 154.184 675.131 152.712C675.771 151.176 676.603 149.864 677.627 148.776C678.715 147.624 679.995 146.728 681.467 146.088C682.939 145.448 684.571 145.128 686.363 145.128ZM669.275 157.8C669.467 156.072 669.915 154.344 670.619 152.616C671.323 150.824 672.251 149.224 673.403 147.816C674.619 146.344 676.059 145.192 677.723 144.36C679.451 143.464 681.371 143.016 683.483 143.016C683.547 143.016 683.707 143.048 683.963 143.112C684.283 143.112 684.539 143.144 684.731 143.208C684.987 143.272 685.083 143.336 685.019 143.4C685.019 143.464 684.795 143.528 684.347 143.592C682.619 143.912 681.019 144.488 679.547 145.32C678.075 146.152 676.795 147.176 675.707 148.392C674.619 149.608 673.723 150.984 673.019 152.52C672.379 153.992 671.995 155.528 671.867 157.128C671.611 160.2 671.739 163.304 672.251 166.44C672.763 169.512 673.339 172.584 673.979 175.656C674.683 178.728 675.259 181.832 675.707 184.968C676.219 188.04 676.347 191.112 676.091 194.184C675.963 195.4 675.675 196.68 675.227 198.024C674.779 199.368 674.171 200.616 673.403 201.768C672.699 202.92 671.803 203.912 670.715 204.744C669.627 205.512 668.411 205.992 667.067 206.184C666.043 206.312 665.595 206.28 665.723 206.088C665.915 205.832 666.299 205.544 666.875 205.224C669.179 203.944 670.747 202.44 671.579 200.712C672.475 198.984 673.051 196.84 673.307 194.28C673.563 191.336 673.435 188.328 672.923 185.256C672.475 182.184 671.931 179.112 671.291 176.04C670.651 172.968 670.075 169.928 669.562 166.92C669.115 163.848 669.019 160.808 669.275 157.8ZM666.683 210.984C669.371 210.984 671.643 210.504 673.499 209.544C675.355 208.52 676.891 207.208 678.107 205.608C679.323 203.944 680.251 202.056 680.891 199.944C681.531 197.768 681.947 195.528 682.139 193.224C682.395 190.344 682.331 187.464 681.947 184.584C681.563 181.704 681.115 178.856 680.603 176.04C680.155 173.16 679.739 170.28 679.355 167.4C678.971 164.52 678.907 161.608 679.163 158.664C679.419 155.72 680.315 153.384 681.851 151.656C683.451 149.928 685.819 149.064 688.955 149.064C690.043 149.064 691.419 149.256 693.083 149.64C694.811 150.024 696.219 150.568 697.307 151.272C698.459 152.04 698.363 152.264 697.019 151.944C696.251 151.752 695.259 151.528 694.043 151.272C692.827 151.016 691.899 150.888 691.259 150.888C688.763 150.888 686.619 151.432 684.827 152.52C683.035 153.608 682.011 155.528 681.755 158.28C681.435 161.224 681.499 164.168 681.947 167.112C682.395 169.992 682.907 172.904 683.483 175.848C684.059 178.792 684.539 181.736 684.923 184.68C685.371 187.624 685.467 190.568 685.211 193.512C685.019 195.944 684.539 198.312 683.771 200.616C683.003 202.92 681.915 205 680.507 206.856C679.099 208.712 677.339 210.216 675.227 211.368C673.179 212.456 670.747 213 667.931 213C667.163 213 666.171 212.872 664.955 212.616C663.739 212.36 662.523 212.04 661.307 211.656C660.091 211.208 658.939 210.696 657.851 210.12C656.826 209.48 656.058 208.808 655.546 208.104C654.97 207.464 655.162 207.304 656.122 207.624C657.21 208.2 658.523 208.904 660.059 209.736C661.659 210.568 663.867 210.984 666.683 210.984ZM666.107 207.624C667.707 207.624 669.179 207.368 670.523 206.856C671.867 206.344 673.243 205.672 674.651 204.84V205.128C674.651 205.704 674.331 206.28 673.691 206.856C673.115 207.368 672.379 207.848 671.483 208.296C670.587 208.744 669.563 209.096 668.411 209.352C667.323 209.608 666.203 209.736 665.051 209.736C664.603 209.736 663.995 209.672 663.227 209.544C662.459 209.352 661.659 209.128 660.827 208.872C660.059 208.552 659.323 208.2 658.619 207.816C657.915 207.432 657.434 206.984 657.178 206.472C656.474 205.704 656.25 205.288 656.506 205.224C656.762 205.096 657.114 205.192 657.562 205.512C658.587 205.832 659.739 206.28 661.019 206.856C662.363 207.368 664.059 207.624 666.107 207.624Z" fill="black"/>
<path d="M301.22 555.43C301.22 561.917 300.108 568.589 297.884 575.446C295.66 582.303 292.602 589.068 288.71 595.74C285.003 602.227 280.555 608.435 275.366 614.366C270.177 620.297 264.617 625.486 258.686 629.934C252.941 634.382 246.917 637.903 240.616 640.498C234.315 643.093 228.199 644.39 222.268 644.39C215.225 644.39 208.831 643.185 203.086 640.776C197.526 638.367 192.8 635.031 188.908 630.768C185.201 626.32 182.329 621.038 180.29 614.922C178.251 608.806 177.232 602.134 177.232 594.906C177.232 591.385 177.325 587.678 177.51 583.786C177.881 579.894 178.251 575.817 178.622 571.554L221.434 574.89C220.507 577.67 220.044 579.894 220.044 581.562C220.044 585.269 221.156 587.956 223.38 589.624C225.604 591.292 228.199 592.126 231.164 592.126C233.573 592.126 235.983 591.663 238.392 590.736C240.987 589.624 243.303 587.956 245.342 585.732C247.566 583.508 249.327 580.728 250.624 577.392C251.921 574.056 252.57 570.164 252.57 565.716C252.57 563.492 252.199 561.361 251.458 559.322C250.902 557.098 249.512 555.245 247.288 553.762C245.249 552.279 242.284 551.075 238.392 550.148C234.5 549.036 229.403 548.48 223.102 548.48C221.434 548.48 219.673 548.573 217.82 548.758C216.152 548.758 213.835 548.943 210.87 549.314C207.905 549.685 204.291 550.241 200.028 550.982C195.951 551.538 190.669 552.372 184.182 553.484C186.221 539.584 188.723 523.645 191.688 505.668C194.653 487.505 198.267 467.026 202.53 444.23L308.448 440.338L302.888 485.652C292.509 486.023 281.945 486.393 271.196 486.764C260.632 487.135 249.79 487.598 238.67 488.154C238.299 490.749 237.836 494.085 237.28 498.162C236.909 502.239 236.446 506.687 235.89 511.506C247.751 511.506 257.852 512.618 266.192 514.842C274.532 517.066 281.297 520.124 286.486 524.016C291.675 527.908 295.382 532.541 297.606 537.916C300.015 543.105 301.22 548.943 301.22 555.43Z" fill="#780000"/>
<path d="M819.055 637.162C804.043 638.274 788.382 639.386 772.073 640.498L776.799 605.47C777.355 599.725 780.135 593.794 785.139 587.678C790.328 581.377 796.444 575.075 803.487 568.774C810.53 562.287 818.036 556.079 826.005 550.148C834.16 544.032 841.666 538.194 848.523 532.634C855.38 527.074 861.033 521.977 865.481 517.344C870.114 512.525 872.431 508.355 872.431 504.834C872.431 499.274 871.319 495.011 869.095 492.046C867.056 488.895 864.462 487.32 861.311 487.32C858.16 487.32 855.38 488.061 852.971 489.544C850.747 490.841 848.986 492.602 847.689 494.826C846.577 497.05 845.743 499.459 845.187 502.054C844.631 504.649 844.353 507.243 844.353 509.838V512.618C844.353 513.174 844.446 513.545 844.631 513.73C839.627 514.101 834.438 514.564 829.063 515.12C824.43 515.491 819.24 516.047 813.495 516.788C807.935 517.344 802.375 517.9 796.815 518.456C796.63 516.973 796.444 515.491 796.259 514.008C796.259 512.34 796.259 510.857 796.259 509.56C796.259 498.625 798.39 488.895 802.653 480.37C806.916 471.659 812.383 464.431 819.055 458.686C825.912 452.755 833.604 448.215 842.129 445.064C850.84 441.913 859.458 440.338 867.983 440.338C875.026 440.338 881.698 441.45 887.999 443.674C894.486 445.898 900.138 449.327 904.957 453.96C909.961 458.408 913.946 464.153 916.911 471.196C919.876 478.053 921.359 486.301 921.359 495.938C921.359 505.205 918.95 514.286 914.131 523.182C909.312 531.893 902.64 540.511 894.115 549.036C885.59 557.376 875.489 565.531 863.813 573.5C852.137 581.469 839.442 589.068 825.727 596.296C830.731 596.296 837.125 596.111 844.909 595.74C852.878 595.369 860.94 594.906 869.095 594.35C877.435 593.609 886.424 592.867 896.061 592.126L891.613 632.436C887.165 632.807 882.068 633.177 876.323 633.548C870.763 633.919 864.74 634.289 858.253 634.66C851.952 635.031 845.372 635.494 838.515 636.05C831.843 636.421 825.356 636.791 819.055 637.162Z" fill="#003078"/>
<path d="M341.808 502.696C340.016 503.016 338.064 503.4 335.952 503.848C333.84 504.296 331.984 504.712 330.384 505.096C331.152 502.344 331.888 499.272 332.592 495.88C333.36 492.424 334.096 488.808 334.8 485.032C335.568 481.256 336.272 477.448 336.912 473.608C337.616 469.704 338.288 465.96 338.928 462.376C340.272 453.864 341.616 445.064 342.96 435.976L375.12 434.344L372.336 446.152H357.264L354.288 463.24C356.272 463.176 358.16 463.144 359.952 463.144C361.424 463.144 362.928 463.144 364.464 463.144C366 463.144 367.184 463.112 368.016 463.048C367.824 464.84 367.568 466.6 367.248 468.328C366.992 470.056 366.736 471.784 366.48 473.512C365.648 473.512 364.464 473.512 362.928 473.512C361.392 473.448 359.792 473.384 358.128 473.32C356.528 473.256 354.704 473.192 352.656 473.128L348.24 501.448C346.064 501.832 343.92 502.248 341.808 502.696ZM363.103 505.096C364.831 496.584 366.495 488.264 368.095 480.136C368.671 476.68 369.311 473.096 370.015 469.384C370.719 465.608 371.359 461.896 371.935 458.248C372.575 454.536 373.151 450.984 373.663 447.592C374.239 444.136 374.687 441 375.007 438.184C378.655 437.032 382.591 436.2 386.815 435.688C391.039 435.112 395.231 434.824 399.391 434.824C401.887 434.824 403.935 435.112 405.535 435.688C407.199 436.264 408.479 437.096 409.375 438.184C410.335 439.208 411.007 440.424 411.391 441.832C411.775 443.24 411.967 444.808 411.967 446.536C411.967 449.096 411.519 451.624 410.623 454.12C409.727 456.552 408.511 458.888 406.975 461.128C405.503 463.304 403.775 465.32 401.791 467.176C399.871 468.968 397.791 470.44 395.551 471.592C396.703 474.152 397.919 476.968 399.199 480.04C400.543 483.048 401.791 485.928 402.943 488.68C404.223 491.88 405.535 495.08 406.879 498.28L391.999 503.464C390.719 499.368 389.567 495.528 388.543 491.944C388.095 490.472 387.647 488.968 387.199 487.432C386.751 485.832 386.335 484.328 385.951 482.92C385.567 481.512 385.247 480.264 384.991 479.176C384.735 478.024 384.575 477.096 384.511 476.392L383.263 476.776C382.879 478.824 382.399 481.224 381.823 483.976C381.311 486.728 380.831 489.384 380.383 491.944C379.807 494.952 379.231 497.992 378.655 501.064L363.103 505.096ZM385.663 463.432C386.879 463.304 388.351 462.792 390.079 461.896C391.871 461 393.567 459.944 395.167 458.728C396.767 457.448 398.143 456.136 399.295 454.792C400.447 453.448 401.023 452.264 401.023 451.24C401.023 450.536 400.799 449.992 400.351 449.608C399.903 449.16 399.263 448.84 398.431 448.648C397.663 448.392 396.799 448.232 395.839 448.168C394.879 448.104 393.887 448.072 392.863 448.072C392.159 448.072 391.423 448.104 390.655 448.168C389.951 448.168 389.311 448.168 388.735 448.168L385.663 463.432ZM459.135 453.064C459.135 458.312 458.559 463.272 457.407 467.944C456.319 472.552 454.847 476.808 452.991 480.712C451.135 484.552 448.959 488.008 446.463 491.08C444.031 494.088 441.471 496.68 438.783 498.856C436.095 500.968 433.375 502.6 430.623 503.752C427.871 504.84 425.247 505.384 422.751 505.384C420.639 505.384 418.719 505 416.991 504.232C415.263 503.4 413.759 502.216 412.479 500.68C411.199 499.08 410.175 497.064 409.407 494.632C408.703 492.136 408.351 489.16 408.351 485.704C408.351 482.12 408.799 478.344 409.695 474.376C410.591 470.408 411.807 466.472 413.343 462.568C414.879 458.664 416.767 454.952 419.007 451.432C421.247 447.912 423.711 444.808 426.399 442.12C429.087 439.368 431.967 437.192 435.039 435.592C438.111 433.992 441.311 433.192 444.639 433.192C447.519 433.192 449.887 433.8 451.743 435.016C453.663 436.168 455.135 437.704 456.159 439.624C457.247 441.48 458.015 443.592 458.463 445.96C458.911 448.328 459.135 450.696 459.135 453.064ZM422.655 483.208C422.655 483.912 422.783 484.648 423.039 485.416C423.295 486.184 423.647 486.856 424.095 487.432C424.543 488.008 425.087 488.52 425.727 488.968C426.431 489.352 427.167 489.544 427.935 489.544C430.815 489.544 433.375 488.552 435.615 486.568C437.855 484.584 439.711 482.152 441.183 479.272C442.655 476.392 443.775 473.32 444.543 470.056C445.375 466.792 445.791 463.816 445.791 461.128C445.791 460.36 445.727 459.528 445.599 458.632C445.535 457.736 445.343 456.904 445.023 456.136C444.767 455.368 444.319 454.728 443.679 454.216C443.103 453.64 442.303 453.352 441.279 453.352C439.231 453.352 437.343 453.864 435.615 454.888C433.887 455.912 432.319 457.288 430.911 459.016C429.567 460.68 428.383 462.6 427.359 464.776C426.335 466.888 425.439 469.064 424.671 471.304C423.967 473.48 423.455 475.624 423.135 477.736C422.815 479.848 422.655 481.672 422.655 483.208ZM453.199 505.48C455.119 496.264 456.943 487.336 458.671 478.696C459.311 474.984 459.983 471.144 460.687 467.176C461.455 463.208 462.159 459.304 462.799 455.464C463.439 451.56 464.015 447.848 464.527 444.328C465.039 440.744 465.423 437.512 465.679 434.632C466.511 434.696 467.215 434.728 467.791 434.728C468.367 434.728 469.039 434.728 469.807 434.728C470.703 434.728 471.791 434.728 473.071 434.728C474.351 434.664 475.631 434.6 476.911 434.536C478.191 434.472 479.567 434.408 481.039 434.344C481.935 438.824 482.735 443.144 483.439 447.304C484.143 450.952 484.847 454.696 485.551 458.536C486.319 462.376 486.991 465.64 487.567 468.328C487.823 467.048 488.111 465.576 488.431 463.912C488.751 462.184 489.103 460.392 489.487 458.536C489.871 456.68 490.223 454.824 490.543 452.968C490.927 451.048 491.311 449.16 491.695 447.304C492.591 443.144 493.519 438.856 494.479 434.44L506.191 433C504.015 442.792 502.095 452.072 500.431 460.84C499.663 464.616 498.895 468.456 498.127 472.36C497.423 476.2 496.751 479.912 496.111 483.496C495.471 487.016 494.927 490.312 494.479 493.384C494.031 496.392 493.679 498.92 493.423 500.968C493.231 500.968 492.463 501.128 491.119 501.448C489.839 501.704 488.335 502.024 486.607 502.408C484.943 502.792 483.247 503.176 481.519 503.56C479.855 503.944 478.607 504.296 477.775 504.616C477.391 499.496 476.975 494.632 476.527 490.024C476.335 488.04 476.111 486.024 475.855 483.976C475.663 481.864 475.439 479.848 475.183 477.928C474.927 476.008 474.671 474.216 474.415 472.552C474.159 470.888 473.903 469.448 473.647 468.232C473.455 469.448 473.199 470.856 472.879 472.456C472.559 474.056 472.239 475.752 471.919 477.544C471.599 479.336 471.279 481.224 470.959 483.208C470.639 485.128 470.287 486.984 469.903 488.776C469.071 493.064 468.175 497.544 467.215 502.216L453.199 505.48ZM504.765 505.096C506.237 498.056 507.645 491.112 508.989 484.264C509.565 481.384 510.141 478.376 510.717 475.24C511.293 472.104 511.837 469.032 512.349 466.024C512.925 462.952 513.405 460.008 513.789 457.192C514.237 454.312 514.621 451.688 514.941 449.32C513.469 449.128 511.965 449.064 510.429 449.128C508.957 449.192 507.485 449 506.013 448.552C506.077 447.528 506.109 446.344 506.109 445C506.109 443.656 506.141 442.312 506.205 440.968C506.269 439.496 506.333 437.928 506.397 436.264C508.061 436.392 509.725 436.488 511.389 436.552C513.053 436.616 514.717 436.648 516.381 436.648C519.645 436.648 522.781 436.584 525.789 436.456C528.861 436.264 531.677 436.072 534.237 435.88C536.861 435.624 539.421 435.336 541.917 435.016L540.861 440.2C540.541 441.672 540.221 443.176 539.901 444.712C539.645 446.248 539.389 447.56 539.133 448.648C537.725 449.032 536.285 449.32 534.813 449.512C533.405 449.64 531.997 449.832 530.589 450.088C530.141 452.264 529.661 454.696 529.149 457.384C528.637 460.008 528.125 462.76 527.613 465.64C527.165 468.456 526.717 471.336 526.269 474.28C525.821 477.224 525.373 480.04 524.925 482.728C523.901 489.064 522.941 495.624 522.045 502.408L504.765 505.096ZM531.674 505.096L544.25 436.84L574.586 434.248C574.138 435.656 573.754 437.096 573.434 438.568C573.114 439.784 572.794 441.064 572.474 442.408C572.218 443.688 571.994 444.84 571.802 445.864C571.162 445.928 570.234 445.992 569.018 446.056C567.866 446.056 566.618 446.088 565.274 446.152C563.93 446.152 562.554 446.152 561.146 446.152C559.802 446.152 558.618 446.152 557.594 446.152L554.234 463.336C556.218 463.208 558.074 463.112 559.802 463.048C561.21 462.984 562.65 462.952 564.122 462.952C565.594 462.952 566.682 462.92 567.386 462.856C567.13 464.648 566.874 466.408 566.618 468.136C566.426 469.864 566.17 471.624 565.85 473.416C565.21 473.48 564.154 473.544 562.682 473.608C561.274 473.608 559.834 473.64 558.362 473.704C556.698 473.768 554.874 473.832 552.89 473.896L549.626 491.56L563.642 489.352L562.682 500.296L531.674 505.096ZM564.105 505.48C566.025 496.264 567.849 487.336 569.577 478.696C570.217 474.984 570.889 471.144 571.593 467.176C572.361 463.208 573.065 459.304 573.705 455.464C574.345 451.56 574.921 447.848 575.433 444.328C575.945 440.744 576.329 437.512 576.585 434.632C577.417 434.696 578.121 434.728 578.697 434.728C579.273 434.728 579.945 434.728 580.713 434.728C581.609 434.728 582.697 434.728 583.977 434.728C585.257 434.664 586.537 434.6 587.817 434.536C589.097 434.472 590.473 434.408 591.945 434.344C592.841 438.824 593.641 443.144 594.345 447.304C595.049 450.952 595.753 454.696 596.457 458.536C597.225 462.376 597.897 465.64 598.473 468.328C598.729 467.048 599.017 465.576 599.337 463.912C599.657 462.184 600.009 460.392 600.393 458.536C600.777 456.68 601.129 454.824 601.449 452.968C601.833 451.048 602.217 449.16 602.601 447.304C603.497 443.144 604.425 438.856 605.385 434.44L617.097 433C614.921 442.792 613.001 452.072 611.337 460.84C610.569 464.616 609.801 468.456 609.033 472.36C608.329 476.2 607.657 479.912 607.017 483.496C606.377 487.016 605.833 490.312 605.385 493.384C604.937 496.392 604.585 498.92 604.329 500.968C604.137 500.968 603.369 501.128 602.025 501.448C600.745 501.704 599.241 502.024 597.513 502.408C595.849 502.792 594.153 503.176 592.425 503.56C590.761 503.944 589.513 504.296 588.681 504.616C588.297 499.496 587.881 494.632 587.433 490.024C587.241 488.04 587.017 486.024 586.761 483.976C586.569 481.864 586.345 479.848 586.089 477.928C585.833 476.008 585.577 474.216 585.321 472.552C585.065 470.888 584.809 469.448 584.553 468.232C584.361 469.448 584.105 470.856 583.785 472.456C583.465 474.056 583.145 475.752 582.825 477.544C582.505 479.336 582.185 481.224 581.865 483.208C581.545 485.128 581.193 486.984 580.809 488.776C579.977 493.064 579.081 497.544 578.121 502.216L564.105 505.48ZM655.895 455.944C655.895 459.272 655.415 462.824 654.455 466.6C653.495 470.312 652.151 474.024 650.423 477.736C648.695 481.384 646.551 484.904 643.991 488.296C641.495 491.624 638.647 494.568 635.447 497.128C632.247 499.624 628.727 501.64 624.887 503.176C621.111 504.712 617.079 505.48 612.791 505.48C611.895 505.48 610.999 505.416 610.103 505.288C609.207 505.224 608.311 505.128 607.415 505C609.143 496.168 610.839 487.56 612.503 479.176C613.143 475.656 613.815 472.008 614.519 468.232C615.223 464.392 615.895 460.616 616.535 456.904C617.175 453.192 617.783 449.64 618.359 446.248C618.999 442.856 619.511 439.784 619.895 437.032C622.647 436.52 625.431 436.04 628.247 435.592C631.063 435.144 633.943 434.92 636.887 434.92C640.343 434.92 643.255 435.464 645.623 436.552C648.055 437.64 650.007 439.144 651.479 441.064C653.015 442.984 654.135 445.224 654.839 447.784C655.543 450.344 655.895 453.064 655.895 455.944ZM633.239 448.456C632.535 452.232 631.799 455.848 631.031 459.304C630.263 462.76 629.495 466.248 628.727 469.768C627.959 473.288 627.191 476.968 626.423 480.808C625.655 484.648 624.919 488.84 624.215 493.384C625.751 492.36 627.223 490.984 628.631 489.256C630.103 487.464 631.479 485.416 632.759 483.112C634.039 480.808 635.191 478.376 636.215 475.816C637.303 473.256 638.231 470.76 638.999 468.328C639.767 465.896 640.343 463.624 640.727 461.512C641.175 459.4 641.399 457.576 641.399 456.04C641.399 453.672 640.727 451.816 639.383 450.472C638.103 449.128 636.055 448.456 633.239 448.456Z" fill="#780000"/>
<path d="M499.392 602.904C499.392 605.528 498.848 607.96 497.76 610.2C496.672 612.44 495.2 614.488 493.344 616.344C491.488 618.136 489.312 619.736 486.816 621.144C484.384 622.488 481.792 623.64 479.04 624.6C476.352 625.496 473.568 626.2 470.688 626.712C467.872 627.16 465.152 627.384 462.528 627.384C460.16 627.384 457.952 627.192 455.904 626.808C458.976 615.608 461.408 604.344 463.2 593.016C465.056 581.624 466.816 570.168 468.48 558.648C471.808 557.944 475.264 557.336 478.848 556.824C482.432 556.248 486.144 555.96 489.984 555.96C491.584 555.96 493.28 556.152 495.072 556.536C496.864 556.92 498.496 557.624 499.968 558.648C501.44 559.672 502.656 561.016 503.616 562.68C504.64 564.344 505.152 566.456 505.152 569.016C505.152 571.448 504.736 573.72 503.904 575.832C503.136 577.944 502.112 579.864 500.832 581.592C499.616 583.32 498.208 584.824 496.608 586.104C495.008 587.32 493.376 588.248 491.712 588.888C492.544 589.336 493.408 589.976 494.304 590.808C495.2 591.64 496.032 592.632 496.8 593.784C497.568 594.872 498.176 596.184 498.624 597.72C499.136 599.256 499.392 600.984 499.392 602.904ZM477.408 592.92C477.152 594.456 476.896 595.832 476.64 597.048C476.448 598.2 476.256 599.32 476.064 600.408C475.872 601.496 475.648 602.648 475.392 603.864C475.2 605.016 474.976 606.392 474.72 607.992C475.936 607.864 477.312 607.64 478.848 607.32C480.384 607 481.856 606.52 483.264 605.88C484.672 605.176 485.856 604.28 486.816 603.192C487.776 602.04 488.256 600.664 488.256 599.064C488.256 597.912 487.936 596.952 487.296 596.184C486.72 595.416 485.952 594.776 484.992 594.264C484.096 593.752 483.104 593.4 482.016 593.208C480.928 592.952 479.904 592.824 478.944 592.824C478.624 592.824 478.336 592.824 478.08 592.824C477.888 592.824 477.664 592.856 477.408 592.92ZM481.728 569.688C481.6 570.392 481.44 571.224 481.248 572.184C481.12 573.144 480.96 574.168 480.768 575.256C480.576 576.28 480.352 577.304 480.096 578.328C479.904 579.352 479.744 580.248 479.616 581.016C481.024 580.76 482.432 580.408 483.84 579.96C485.248 579.512 486.496 579.032 487.584 578.52C488.736 577.944 489.632 577.336 490.272 576.696C490.976 576.056 491.328 575.352 491.328 574.584C491.328 573.624 491.04 572.856 490.464 572.28C489.888 571.64 489.12 571.128 488.16 570.744C487.264 570.36 486.304 570.104 485.28 569.976C484.32 569.784 483.456 569.688 482.688 569.688H481.728ZM532.391 625.08C530.791 625.336 529.031 625.624 527.111 625.944C525.191 626.264 523.463 626.552 521.927 626.808C522.183 624.696 522.439 622.616 522.695 620.568C522.887 618.776 523.047 616.984 523.175 615.192C523.367 613.4 523.527 611.864 523.655 610.584H515.303L511.463 624.408C510.055 624.6 508.391 624.824 506.471 625.08C504.551 625.272 502.759 625.464 501.095 625.656C499.047 625.912 497.03 626.168 495.046 626.424C497.607 617.912 500.135 609.528 502.631 601.272C503.655 597.816 504.711 594.2 505.799 590.424C506.951 586.648 508.071 582.904 509.159 579.192C510.311 575.416 511.399 571.8 512.423 568.344C513.447 564.888 514.343 561.72 515.111 558.84C519.463 558.52 523.879 558.136 528.359 557.688C532.903 557.24 537.319 556.632 541.607 555.864C541.415 557.912 541.191 560.472 540.935 563.544C540.743 566.552 540.551 569.848 540.359 573.432C540.167 577.016 539.975 580.76 539.783 584.664C539.591 588.568 539.399 592.408 539.207 596.184C538.887 605.016 538.535 614.392 538.151 624.312C536.231 624.632 534.311 624.888 532.391 625.08ZM517.607 600.984C517.863 600.984 518.311 600.984 518.951 600.984C519.655 600.92 520.359 600.888 521.062 600.888C521.831 600.824 522.535 600.792 523.175 600.792C523.815 600.728 524.263 600.664 524.519 600.6C524.519 600.216 524.551 599.576 524.615 598.68C524.743 597.72 524.839 596.664 524.903 595.512C525.031 594.296 525.159 592.984 525.286 591.576C525.415 590.168 525.543 588.792 525.671 587.448C525.927 584.184 526.247 580.664 526.631 576.888L527.207 568.536L525.767 568.632L523.559 576.888L517.607 600.984ZM579.586 606.36C578.05 609.88 576.322 612.952 574.402 615.576C572.546 618.136 570.562 620.312 568.45 622.104C566.402 623.832 564.322 625.112 562.21 625.944C560.098 626.776 558.05 627.192 556.066 627.192C554.082 627.192 552.258 626.744 550.594 625.848C548.994 624.952 547.586 623.608 546.37 621.816C545.154 620.024 544.162 617.816 543.394 615.192C542.69 612.568 542.338 609.496 542.338 605.976C542.338 599.96 543.17 594.04 544.834 588.216C546.498 582.328 548.834 577.048 551.842 572.376C554.85 567.704 558.402 563.96 562.498 561.144C566.658 558.264 571.234 556.824 576.226 556.824C577.762 556.824 579.234 557.144 580.642 557.784C582.05 558.424 583.266 559.32 584.29 560.472C585.314 561.624 586.114 563.032 586.69 564.696C587.33 566.36 587.65 568.216 587.65 570.264C587.65 570.648 587.65 571.064 587.65 571.512C587.65 571.896 587.618 572.312 587.554 572.76L574.978 576.12C574.21 574.52 573.314 573.72 572.29 573.72C571.266 573.72 570.178 574.328 569.026 575.544C567.938 576.696 566.85 578.232 565.762 580.152C564.674 582.008 563.618 584.12 562.594 586.488C561.57 588.792 560.674 591.128 559.906 593.496C559.138 595.864 558.498 598.136 557.986 600.312C557.538 602.424 557.314 604.152 557.314 605.496C557.314 607.544 557.57 608.984 558.082 609.816C558.658 610.648 559.394 611.064 560.29 611.064C560.994 611.064 561.794 610.808 562.69 610.296C563.586 609.72 564.418 609.016 565.186 608.184C565.954 607.288 566.658 606.296 567.298 605.208C567.938 604.12 568.386 603.032 568.642 601.944L579.586 606.36ZM579.016 627.096C580.936 618.136 582.728 609.432 584.392 600.984C585.032 597.336 585.704 593.56 586.408 589.656C587.112 585.752 587.752 581.88 588.328 578.04C588.968 574.2 589.512 570.488 589.96 566.904C590.472 563.256 590.856 559.96 591.112 557.016C592.584 557.144 594.248 557.272 596.104 557.4C597.96 557.464 599.688 557.56 601.288 557.688C603.208 557.816 605.128 557.88 607.048 557.88C606.984 558.136 606.888 558.616 606.76 559.32C606.632 560.024 606.472 560.888 606.28 561.912C606.088 562.872 605.864 563.96 605.608 565.176C605.416 566.392 605.192 567.608 604.936 568.824C604.424 571.64 603.848 574.808 603.208 578.328L603.784 578.232C604.424 577.208 605.32 575.8 606.472 574.008C607.688 572.152 608.936 570.2 610.216 568.152C611.496 566.104 612.744 564.152 613.96 562.296C615.176 560.376 616.2 558.744 617.032 557.4C620.232 557.144 623.432 556.856 626.632 556.536C629.832 556.216 633.032 555.8 636.232 555.288C633.224 559.32 630.312 563.288 627.496 567.192C626.28 568.856 625.032 570.584 623.752 572.376C622.536 574.168 621.32 575.928 620.104 577.656C618.888 579.384 617.736 581.048 616.648 582.648C615.624 584.248 614.696 585.72 613.864 587.064C615.272 593.528 616.936 599.768 618.856 605.784C620.776 611.8 622.728 617.944 624.712 624.216C623.24 624.152 621.736 624.12 620.2 624.12C618.664 624.056 617.16 624.024 615.688 624.024C613.832 624.024 612.04 624.056 610.312 624.12C608.584 624.12 606.792 624.152 604.936 624.216C604.36 620.056 603.72 615.704 603.016 611.16C602.376 606.552 601.768 602.168 601.192 598.008L599.464 600.024C599.016 601.944 598.504 604.312 597.928 607.128C597.416 609.944 596.904 612.664 596.392 615.288C595.816 618.36 595.208 621.528 594.568 624.792L579.016 627.096ZM623.456 627.096L636.032 558.84L666.368 556.248C665.92 557.656 665.536 559.096 665.216 560.568C664.896 561.784 664.576 563.064 664.256 564.408C664 565.688 663.776 566.84 663.584 567.864C662.944 567.928 662.016 567.992 660.8 568.056C659.648 568.056 658.4 568.088 657.056 568.152C655.712 568.152 654.336 568.152 652.928 568.152C651.584 568.152 650.4 568.152 649.376 568.152L646.016 585.336C648 585.208 649.856 585.112 651.584 585.048C652.992 584.984 654.432 584.952 655.904 584.952C657.376 584.952 658.464 584.92 659.168 584.856C658.912 586.648 658.656 588.408 658.4 590.136C658.208 591.864 657.952 593.624 657.632 595.416C656.992 595.48 655.936 595.544 654.464 595.608C653.056 595.608 651.616 595.64 650.144 595.704C648.48 595.768 646.656 595.832 644.672 595.896L641.408 613.56L655.424 611.352L654.464 622.296L623.456 627.096ZM655.886 627.48C657.806 618.264 659.63 609.336 661.358 600.696C661.998 596.984 662.67 593.144 663.374 589.176C664.142 585.208 664.846 581.304 665.486 577.464C666.126 573.56 666.702 569.848 667.214 566.328C667.726 562.744 668.11 559.512 668.366 556.632C669.198 556.696 669.902 556.728 670.478 556.728C671.054 556.728 671.726 556.728 672.494 556.728C673.39 556.728 674.478 556.728 675.758 556.728C677.038 556.664 678.318 556.6 679.598 556.536C680.878 556.472 682.254 556.408 683.726 556.344C684.622 560.824 685.422 565.144 686.126 569.304C686.83 572.952 687.534 576.696 688.238 580.536C689.006 584.376 689.678 587.64 690.254 590.328C690.51 589.048 690.798 587.576 691.118 585.912C691.438 584.184 691.79 582.392 692.174 580.536C692.558 578.68 692.91 576.824 693.23 574.968C693.614 573.048 693.998 571.16 694.382 569.304C695.278 565.144 696.206 560.856 697.166 556.44L708.878 555C706.702 564.792 704.782 574.072 703.118 582.84C702.35 586.616 701.582 590.456 700.814 594.36C700.11 598.2 699.438 601.912 698.798 605.496C698.158 609.016 697.614 612.312 697.166 615.384C696.718 618.392 696.366 620.92 696.11 622.968C695.918 622.968 695.15 623.128 693.806 623.448C692.526 623.704 691.022 624.024 689.294 624.408C687.63 624.792 685.934 625.176 684.206 625.56C682.542 625.944 681.294 626.296 680.462 626.616C680.078 621.496 679.662 616.632 679.214 612.024C679.022 610.04 678.798 608.024 678.542 605.976C678.35 603.864 678.126 601.848 677.87 599.928C677.614 598.008 677.358 596.216 677.102 594.552C676.846 592.888 676.59 591.448 676.334 590.232C676.142 591.448 675.886 592.856 675.566 594.456C675.246 596.056 674.926 597.752 674.606 599.544C674.286 601.336 673.966 603.224 673.646 605.208C673.326 607.128 672.974 608.984 672.59 610.776C671.758 615.064 670.862 619.544 669.902 624.216L655.886 627.48ZM747.677 577.944C747.677 581.272 747.197 584.824 746.237 588.6C745.277 592.312 743.933 596.024 742.205 599.736C740.477 603.384 738.333 606.904 735.773 610.296C733.277 613.624 730.429 616.568 727.229 619.128C724.029 621.624 720.509 623.64 716.669 625.176C712.893 626.712 708.861 627.48 704.573 627.48C703.677 627.48 702.781 627.416 701.885 627.288C700.989 627.224 700.093 627.128 699.197 627C700.925 618.168 702.621 609.56 704.285 601.176C704.925 597.656 705.597 594.008 706.301 590.232C707.005 586.392 707.677 582.616 708.317 578.904C708.957 575.192 709.565 571.64 710.141 568.248C710.781 564.856 711.293 561.784 711.677 559.032C714.429 558.52 717.213 558.04 720.029 557.592C722.845 557.144 725.725 556.92 728.669 556.92C732.125 556.92 735.037 557.464 737.405 558.552C739.837 559.64 741.789 561.144 743.261 563.064C744.797 564.984 745.917 567.224 746.621 569.784C747.325 572.344 747.677 575.064 747.677 577.944ZM725.021 570.456C724.317 574.232 723.581 577.848 722.812 581.304C722.045 584.76 721.277 588.248 720.509 591.768C719.741 595.288 718.973 598.968 718.205 602.808C717.437 606.648 716.701 610.84 715.997 615.384C717.533 614.36 719.005 612.984 720.413 611.256C721.885 609.464 723.261 607.416 724.541 605.112C725.821 602.808 726.973 600.376 727.997 597.816C729.085 595.256 730.013 592.76 730.781 590.328C731.549 587.896 732.125 585.624 732.509 583.512C732.957 581.4 733.181 579.576 733.181 578.04C733.181 575.672 732.509 573.816 731.165 572.472C729.885 571.128 727.837 570.456 725.021 570.456Z" fill="#003078"/>
</svg>
