<svg width="773" height="339" viewBox="0 0 773 339" fill="none" xmlns="http://www.w3.org/2000/svg">
<path d="M337.267 140.348C337.267 142.323 336.946 144.191 336.306 145.953C335.665 147.715 334.744 149.263 333.543 150.598C332.368 151.906 330.94 152.947 329.259 153.721C327.577 154.521 325.709 154.922 323.653 154.922C321.838 154.922 320.157 154.628 318.608 154.041C317.087 153.48 315.766 152.68 314.645 151.639C313.523 150.598 312.643 149.33 312.002 147.835C311.388 146.34 311.081 144.672 311.081 142.83C311.081 142.456 311.094 141.989 311.121 141.429C311.148 140.868 311.228 140.334 311.361 139.827C311.521 139.293 311.735 138.853 312.002 138.506C312.296 138.132 312.709 137.945 313.243 137.945C313.67 137.945 314.137 138.039 314.645 138.226C315.178 138.386 315.672 138.613 316.126 138.906C316.58 139.2 316.953 139.56 317.247 139.987C317.567 140.388 317.728 140.828 317.728 141.309V143.631C317.728 145.473 318.221 146.981 319.209 148.155C320.223 149.303 321.678 149.877 323.573 149.877C324.908 149.877 326.056 149.57 327.017 148.956C327.978 148.342 328.752 147.555 329.339 146.594C329.953 145.633 330.393 144.565 330.66 143.391C330.954 142.189 331.101 141.015 331.101 139.867C331.101 137.625 330.633 135.45 329.699 133.341C328.792 131.232 327.644 129.177 326.256 127.175C324.868 125.146 323.36 123.158 321.731 121.209C320.103 119.26 318.595 117.325 317.207 115.403C315.819 113.481 314.658 111.56 313.724 109.638C312.816 107.716 312.362 105.754 312.362 103.752C312.362 102.124 312.683 100.722 313.323 99.5479C313.991 98.3467 314.858 97.3724 315.926 96.625C317.02 95.8509 318.248 95.2904 319.609 94.9434C320.997 94.5697 322.425 94.3828 323.894 94.3828C325.682 94.3828 327.284 94.6364 328.698 95.1436C330.113 95.6507 331.314 96.3848 332.302 97.3457C333.289 98.3066 334.037 99.4945 334.544 100.909C335.078 102.297 335.345 103.885 335.345 105.674C335.345 105.941 335.331 106.274 335.305 106.675C335.278 107.075 335.211 107.476 335.104 107.876C334.998 108.25 334.838 108.583 334.624 108.877C334.41 109.144 334.117 109.277 333.743 109.277C333.209 109.277 332.675 109.144 332.142 108.877C331.688 108.637 331.314 108.41 331.021 108.196C330.754 107.956 330.54 107.702 330.38 107.436C330.22 107.142 330.1 106.822 330.02 106.475C329.939 106.128 329.873 105.701 329.819 105.193C329.686 104.232 329.512 103.365 329.299 102.591C329.085 101.817 328.765 101.163 328.338 100.629C327.911 100.095 327.35 99.6813 326.656 99.3877C325.962 99.0941 325.068 98.9473 323.974 98.9473C323.2 98.9473 322.452 99.0273 321.731 99.1875C321.037 99.3477 320.424 99.6146 319.89 99.9883C319.382 100.362 318.969 100.856 318.648 101.47C318.355 102.057 318.208 102.791 318.208 103.672C318.208 104.9 318.475 106.154 319.009 107.436C319.569 108.717 320.29 110.025 321.171 111.359C322.078 112.694 323.093 114.069 324.214 115.483C325.362 116.871 326.536 118.313 327.737 119.808C328.938 121.302 330.1 122.851 331.221 124.452C332.368 126.027 333.383 127.669 334.264 129.377C335.171 131.085 335.892 132.86 336.426 134.702C336.986 136.517 337.267 138.399 337.267 140.348ZM374.521 121.85C374.521 123.051 374.214 123.905 373.6 124.412C372.986 124.893 372.118 125.24 370.997 125.453C371.237 129.564 371.384 133.648 371.438 137.705C371.518 141.762 371.558 145.846 371.558 149.957C371.558 150.598 371.424 151.091 371.157 151.438C370.89 151.785 370.41 151.959 369.716 151.959C369.129 151.959 368.541 151.892 367.954 151.759C367.394 151.625 366.886 151.425 366.433 151.158C365.979 150.865 365.605 150.491 365.312 150.037C365.045 149.557 364.911 148.969 364.911 148.275V135.783C364.911 134.208 364.911 132.633 364.911 131.059C364.911 129.484 364.884 127.909 364.831 126.334C362.536 126.654 360.24 126.935 357.944 127.175C355.649 127.388 353.353 127.535 351.058 127.615C351.138 133.301 351.298 138.986 351.538 144.672C351.618 145.846 351.698 146.994 351.778 148.115C351.885 149.236 351.939 150.357 351.939 151.479C351.939 152.012 351.792 152.413 351.498 152.68C351.204 152.947 350.791 153.08 350.257 153.08C349.856 153.08 349.429 153.053 348.976 153C348.522 152.92 348.068 152.8 347.614 152.64C347.187 152.479 346.787 152.279 346.413 152.039C346.039 151.799 345.746 151.505 345.532 151.158C345.452 151.025 345.385 150.624 345.332 149.957C345.279 149.29 345.225 148.449 345.172 147.435C345.145 146.42 345.119 145.272 345.092 143.991C345.065 142.71 345.052 141.389 345.052 140.027C345.052 138.666 345.052 137.331 345.052 136.023C345.052 134.689 345.052 133.461 345.052 132.34C345.052 131.219 345.052 130.244 345.052 129.417C345.052 128.59 345.052 128.016 345.052 127.695C344.678 127.695 344.344 127.615 344.051 127.455C343.757 127.268 343.61 126.975 343.61 126.574C343.61 126.094 343.744 125.64 344.011 125.213C344.304 124.759 344.651 124.385 345.052 124.092V99.9082C345.052 99.3743 345.145 98.9473 345.332 98.627C345.546 98.3066 345.933 98.1465 346.493 98.1465C347.401 98.1465 348.121 98.2799 348.655 98.5469C349.216 98.8138 349.63 99.1875 349.897 99.668C350.19 100.122 350.377 100.682 350.457 101.35C350.564 101.99 350.631 102.684 350.657 103.432C350.737 106.688 350.791 109.945 350.817 113.201C350.844 116.458 350.897 119.714 350.978 122.971C353.273 122.757 355.555 122.544 357.824 122.33C360.093 122.09 362.375 121.743 364.671 121.289C364.537 118.46 364.364 115.657 364.15 112.881C363.964 110.105 363.683 107.302 363.31 104.473C363.096 103.138 362.842 101.817 362.549 100.509C362.255 99.1742 362.108 97.8262 362.108 96.4648C362.108 95.9844 362.282 95.6774 362.629 95.5439C363.003 95.4105 363.39 95.3438 363.79 95.3438C364.431 95.3438 365.071 95.4505 365.712 95.6641C366.379 95.8776 366.913 96.2513 367.314 96.7852C367.554 97.1322 367.807 97.8662 368.074 98.9873C368.341 100.082 368.581 101.39 368.795 102.911C369.035 104.433 369.262 106.074 369.476 107.836C369.689 109.598 369.876 111.293 370.036 112.921C370.196 114.522 370.33 115.977 370.437 117.285C370.57 118.566 370.65 119.501 370.677 120.088C370.997 120.008 371.331 119.941 371.678 119.888C372.025 119.808 372.358 119.768 372.679 119.768C373.319 119.768 373.786 119.968 374.08 120.368C374.374 120.742 374.521 121.236 374.521 121.85ZM409.572 130.979C409.572 131.539 409.372 132.126 408.972 132.74C408.571 133.354 408.131 133.808 407.65 134.102C407.517 134.182 407.29 134.262 406.97 134.342C406.649 134.422 406.302 134.502 405.929 134.582C405.582 134.635 405.235 134.702 404.888 134.782C404.567 134.836 404.314 134.876 404.127 134.902L405.088 140.828C405.382 142.67 405.595 144.525 405.729 146.394C405.889 148.235 406.236 150.064 406.77 151.879C406.823 152.039 406.876 152.186 406.93 152.319C406.983 152.453 407.01 152.626 407.01 152.84C407.01 153.187 406.903 153.454 406.69 153.641C406.503 153.827 406.262 153.961 405.969 154.041C405.702 154.148 405.408 154.215 405.088 154.241C404.768 154.268 404.474 154.281 404.207 154.281H403.647C402.819 154.281 402.178 154.215 401.725 154.081C401.298 153.948 400.964 153.721 400.724 153.4C400.483 153.08 400.323 152.68 400.243 152.199C400.163 151.692 400.07 151.078 399.963 150.357C399.322 145.473 398.602 140.588 397.801 135.703C396.146 135.917 394.478 136.117 392.796 136.304C391.141 136.491 389.473 136.664 387.791 136.824L386.51 144.672C386.456 145.152 386.376 145.806 386.27 146.634C386.19 147.461 386.083 148.315 385.949 149.196C385.843 150.05 385.709 150.851 385.549 151.599C385.415 152.346 385.255 152.893 385.068 153.24C384.908 153.561 384.761 153.787 384.628 153.921C384.495 154.054 384.241 154.121 383.867 154.121C383.387 154.121 382.906 154.028 382.426 153.841C381.972 153.681 381.558 153.44 381.185 153.12C380.838 152.826 380.557 152.466 380.344 152.039C380.13 151.612 380.024 151.132 380.024 150.598C380.024 150.064 380.077 149.53 380.184 148.996C380.317 148.462 380.424 147.928 380.504 147.395C380.798 145.633 381.065 143.884 381.305 142.149C381.545 140.388 381.812 138.639 382.106 136.904C381.919 136.878 381.705 136.838 381.465 136.784C381.225 136.704 380.984 136.611 380.744 136.504C380.531 136.397 380.344 136.264 380.184 136.104C380.024 135.943 379.943 135.757 379.943 135.543C379.943 135.276 380.037 135.036 380.224 134.822C380.437 134.582 380.677 134.368 380.944 134.182C381.238 133.968 381.532 133.795 381.825 133.661C382.119 133.501 382.372 133.381 382.586 133.301C383.147 129.564 383.68 125.84 384.188 122.13C384.695 118.42 385.149 114.669 385.549 110.879C385.656 109.865 385.749 108.837 385.829 107.796C385.909 106.755 385.989 105.714 386.069 104.673C386.176 103.632 386.296 102.604 386.43 101.59C386.59 100.576 386.803 99.5612 387.07 98.5469C387.311 97.5859 387.711 96.8118 388.272 96.2246C388.832 95.6374 389.66 95.3438 390.754 95.3438C391.074 95.3438 391.381 95.3704 391.675 95.4238C391.995 95.4772 392.275 95.584 392.516 95.7441C393.21 96.0911 393.93 97.0387 394.678 98.5869C395.425 100.135 396.173 102.017 396.92 104.232C397.667 106.421 398.375 108.797 399.042 111.359C399.736 113.922 400.363 116.404 400.924 118.807C401.484 121.209 401.965 123.384 402.365 125.333C402.766 127.255 403.059 128.683 403.246 129.617C403.807 129.537 404.367 129.47 404.928 129.417C405.488 129.337 406.049 129.297 406.609 129.297C406.876 129.297 407.183 129.31 407.53 129.337C407.877 129.364 408.198 129.444 408.491 129.577C408.812 129.684 409.065 129.857 409.252 130.098C409.466 130.311 409.572 130.605 409.572 130.979ZM397 130.658C396.306 126.868 395.545 123.118 394.718 119.407C393.917 115.67 392.969 111.947 391.875 108.236C391.395 112.267 390.874 116.271 390.314 120.248C389.753 124.225 389.152 128.202 388.512 132.18C389.953 131.966 391.368 131.739 392.756 131.499C394.171 131.232 395.585 130.952 397 130.658ZM436.817 147.154C436.817 147.768 436.483 148.355 435.816 148.916C435.175 149.477 434.334 149.997 433.293 150.478C432.279 150.931 431.144 151.358 429.89 151.759C428.662 152.132 427.447 152.453 426.246 152.72C425.072 152.987 423.991 153.187 423.003 153.32C422.015 153.48 421.281 153.561 420.801 153.561C419.893 153.561 419.053 153.454 418.278 153.24C417.531 153.027 416.877 152.706 416.317 152.279C415.756 151.826 415.316 151.252 414.995 150.558C414.702 149.864 414.555 149.023 414.555 148.035C414.555 140.908 414.581 133.808 414.635 126.734C414.688 119.661 414.715 112.534 414.715 105.354C414.715 104.232 414.688 103.125 414.635 102.03C414.581 100.936 414.555 99.8281 414.555 98.707C414.555 98.4401 414.568 98.1331 414.595 97.7861C414.622 97.4124 414.688 97.0788 414.795 96.7852C414.902 96.4648 415.062 96.1979 415.276 95.9844C415.489 95.7708 415.783 95.6641 416.156 95.6641C416.53 95.6641 416.917 95.7174 417.317 95.8242C417.745 95.931 418.132 96.0911 418.479 96.3047C418.852 96.5182 419.173 96.7852 419.44 97.1055C419.733 97.3991 419.947 97.7461 420.08 98.1465C420.214 98.627 420.267 99.1475 420.24 99.708C420.24 100.242 420.24 100.789 420.24 101.35C420.374 108.45 420.467 115.497 420.521 122.49C420.601 129.484 420.641 136.531 420.641 143.631C420.641 144.432 420.641 145.232 420.641 146.033C420.667 146.834 420.721 147.635 420.801 148.436C421.522 148.409 422.402 148.289 423.443 148.075C424.484 147.862 425.526 147.595 426.567 147.274C427.634 146.927 428.635 146.54 429.569 146.113C430.504 145.686 431.238 145.232 431.772 144.752C432.012 144.512 432.265 144.271 432.532 144.031C432.799 143.764 433.133 143.631 433.533 143.631C433.88 143.631 434.241 143.751 434.614 143.991C435.015 144.231 435.375 144.538 435.695 144.912C436.016 145.259 436.283 145.633 436.496 146.033C436.71 146.434 436.817 146.807 436.817 147.154ZM468.305 144.271C468.305 144.725 468.118 145.166 467.744 145.593C467.397 146.02 466.97 146.434 466.463 146.834C465.956 147.234 465.435 147.608 464.902 147.955C464.368 148.275 463.927 148.542 463.58 148.756C462.673 149.343 461.765 149.89 460.858 150.397C459.977 150.905 459.056 151.345 458.095 151.719C457.161 152.092 456.186 152.386 455.172 152.6C454.184 152.813 453.143 152.92 452.049 152.92L451.408 153C450.527 153 449.647 152.907 448.766 152.72C447.912 152.506 447.111 152.199 446.363 151.799C445.616 151.372 444.949 150.838 444.361 150.197C443.774 149.557 443.32 148.783 443 147.875C442.76 147.154 442.573 146.3 442.44 145.312C442.306 144.325 442.199 143.297 442.119 142.229C442.066 141.162 442.013 140.121 441.959 139.106C441.932 138.065 441.906 137.145 441.879 136.344C441.479 128.176 441.158 120.008 440.918 111.84C440.865 110.906 440.825 109.971 440.798 109.037C440.771 108.103 440.758 107.169 440.758 106.234C440.758 104.633 440.851 103.271 441.038 102.15C441.225 101.029 441.599 100.108 442.159 99.3877C442.72 98.667 443.521 98.1465 444.562 97.8262C445.629 97.5059 447.031 97.3457 448.766 97.3457C450.501 97.3457 452.236 97.359 453.971 97.3857C455.733 97.4124 457.494 97.4258 459.256 97.4258C459.79 97.4258 460.324 97.4124 460.858 97.3857C461.391 97.3324 461.925 97.3724 462.459 97.5059C462.779 97.5592 463.06 97.6527 463.3 97.7861C463.54 97.8929 463.66 98.1465 463.66 98.5469C463.66 99.5078 463.34 100.229 462.699 100.709C462.059 101.163 461.298 101.47 460.417 101.63C459.536 101.79 458.615 101.87 457.654 101.87C456.72 101.843 455.946 101.83 455.332 101.83H450.127C449.593 101.83 449.059 101.83 448.526 101.83C447.992 101.83 447.458 101.857 446.924 101.91C446.764 102.311 446.657 102.724 446.604 103.151C446.55 103.578 446.524 104.019 446.524 104.473C446.524 107.382 446.59 110.252 446.724 113.081C446.884 115.91 447.031 118.78 447.164 121.689C448.819 121.556 450.461 121.396 452.089 121.209C453.717 121.022 455.359 120.809 457.014 120.568C457.254 120.568 457.468 120.555 457.654 120.528C457.868 120.502 458.082 120.488 458.295 120.488C458.856 120.488 459.243 120.635 459.456 120.929C459.696 121.222 459.817 121.636 459.817 122.17C459.817 122.544 459.79 122.891 459.736 123.211C459.71 123.531 459.63 123.852 459.496 124.172C459.309 124.706 459.002 125.093 458.575 125.333C458.148 125.573 457.668 125.747 457.134 125.854C456.6 125.934 456.04 125.974 455.452 125.974C454.892 125.974 454.398 125.987 453.971 126.014C452.85 126.067 451.742 126.107 450.648 126.134C449.58 126.16 448.499 126.201 447.404 126.254C447.431 126.814 447.471 127.655 447.525 128.776C447.578 129.897 447.631 131.165 447.685 132.58C447.765 133.968 447.845 135.41 447.925 136.904C448.032 138.399 448.138 139.814 448.245 141.148C448.352 142.456 448.472 143.604 448.606 144.592C448.739 145.579 448.873 146.247 449.006 146.594C449.3 147.154 449.633 147.528 450.007 147.715C450.381 147.875 450.875 147.955 451.488 147.955C452.476 147.955 453.517 147.768 454.611 147.395C455.706 146.994 456.774 146.5 457.815 145.913C458.856 145.299 459.843 144.632 460.777 143.911C461.738 143.19 462.566 142.483 463.26 141.789C463.554 141.549 463.847 141.309 464.141 141.068C464.434 140.801 464.781 140.668 465.182 140.668C465.582 140.668 465.969 140.788 466.343 141.028C466.717 141.269 467.05 141.576 467.344 141.949C467.638 142.296 467.864 142.683 468.025 143.11C468.211 143.537 468.305 143.924 468.305 144.271ZM505.519 153.08C505.519 153.614 505.385 154.041 505.118 154.361C504.878 154.682 504.451 154.842 503.837 154.842C503.517 154.842 503.183 154.802 502.836 154.722C502.489 154.668 502.155 154.575 501.835 154.441C501.168 154.255 500.634 154.081 500.234 153.921C499.86 153.761 499.566 153.547 499.353 153.28C499.166 153.04 499.046 152.72 498.992 152.319C498.939 151.919 498.899 151.372 498.872 150.678C498.659 145.206 498.418 139.787 498.152 134.422C497.911 129.03 497.511 123.611 496.95 118.166C496.577 120.008 496.216 121.85 495.869 123.691C495.522 125.533 495.162 127.402 494.788 129.297C494.415 131.272 494.054 133.287 493.707 135.343C493.387 137.398 492.866 139.387 492.146 141.309C491.852 142.083 491.492 142.697 491.065 143.15C490.638 143.577 489.984 143.791 489.103 143.791C488.462 143.791 487.942 143.684 487.541 143.471C487.141 143.23 486.754 142.883 486.38 142.43C486.033 142.056 485.659 141.335 485.259 140.268C484.859 139.2 484.432 137.959 483.978 136.544C483.551 135.103 483.124 133.568 482.696 131.939C482.269 130.311 481.869 128.75 481.495 127.255C481.122 125.733 480.788 124.345 480.494 123.091C480.201 121.836 479.974 120.889 479.814 120.248V125.693C479.814 129.243 479.88 132.78 480.014 136.304C480.147 139.827 480.374 143.337 480.695 146.834C480.775 147.608 480.881 148.382 481.015 149.156C481.175 149.93 481.255 150.704 481.255 151.479C481.255 152.173 481.015 152.626 480.534 152.84C480.081 153.053 479.573 153.16 479.013 153.16C477.491 153.16 476.317 152.84 475.489 152.199C474.689 151.532 474.288 150.411 474.288 148.836C474.288 145.606 474.208 142.403 474.048 139.227C473.888 136.05 473.808 132.847 473.808 129.617C473.808 129.163 473.808 128.376 473.808 127.255C473.835 126.134 473.861 124.812 473.888 123.291C473.915 121.743 473.941 120.075 473.968 118.286C474.021 116.471 474.075 114.643 474.128 112.801C474.182 110.959 474.235 109.171 474.288 107.436C474.342 105.674 474.395 104.099 474.448 102.711C474.502 101.323 474.555 100.175 474.609 99.2676C474.689 98.3333 474.769 97.7728 474.849 97.5859C474.982 97.2122 475.129 96.972 475.289 96.8652C475.476 96.7585 475.756 96.7051 476.13 96.7051C477.144 96.7051 477.985 96.932 478.653 97.3857C479.347 97.8128 479.814 98.5469 480.054 99.5879C480.428 100.148 480.855 101.176 481.335 102.671C481.816 104.139 482.323 105.861 482.857 107.836C483.39 109.811 483.924 111.947 484.458 114.242C485.019 116.511 485.539 118.7 486.02 120.809C486.527 122.917 486.981 124.853 487.381 126.614C487.808 128.376 488.142 129.724 488.382 130.658C489.156 126.067 489.944 121.503 490.744 116.965C491.545 112.427 492.306 107.863 493.027 103.271C493.16 102.497 493.293 101.737 493.427 100.989C493.587 100.242 493.667 99.4811 493.667 98.707C493.667 98.2266 493.6 97.7861 493.467 97.3857C493.334 96.9587 493.267 96.5182 493.267 96.0645C493.267 95.5039 493.44 95.1702 493.787 95.0635C494.161 94.93 494.575 94.8633 495.029 94.8633C495.456 94.8633 495.963 94.93 496.55 95.0635C497.137 95.1969 497.698 95.3971 498.232 95.6641C498.792 95.931 499.259 96.2646 499.633 96.665C500.033 97.0654 500.234 97.5326 500.234 98.0664C500.234 99.0007 500.154 99.9883 499.993 101.029C500.954 105.54 501.755 110.065 502.396 114.603C503.036 119.114 503.517 123.665 503.837 128.256C504.157 132.206 504.411 136.13 504.598 140.027C504.811 143.924 505.065 147.822 505.359 151.719C505.412 151.959 505.452 152.186 505.479 152.399C505.505 152.613 505.519 152.84 505.519 153.08ZM573.838 152.84C573.838 153.16 573.678 153.427 573.358 153.641C573.037 153.854 572.65 154.028 572.197 154.161C571.77 154.295 571.329 154.388 570.875 154.441C570.448 154.495 570.128 154.521 569.914 154.521C569.381 154.521 568.94 154.468 568.593 154.361C568.273 154.281 567.886 154.121 567.432 153.881C567.298 153.801 566.978 153.467 566.471 152.88C565.991 152.266 565.377 151.479 564.629 150.518C563.909 149.557 563.081 148.462 562.147 147.234C561.239 146.007 560.292 144.752 559.304 143.471C558.343 142.163 557.382 140.868 556.421 139.587C555.487 138.279 554.619 137.091 553.819 136.023C553.018 134.929 552.324 133.981 551.737 133.181C551.176 132.353 550.776 131.779 550.535 131.459L550.295 131.539C550.455 134.715 550.656 137.892 550.896 141.068C551.163 144.218 551.603 147.341 552.217 150.438C552.297 150.758 552.377 151.091 552.457 151.438C552.564 151.785 552.617 152.146 552.617 152.52C552.617 153.133 552.417 153.521 552.017 153.681C551.617 153.868 551.176 153.961 550.696 153.961C550.429 153.961 550.108 153.948 549.735 153.921C549.361 153.894 548.974 153.841 548.574 153.761C548.173 153.681 547.799 153.574 547.452 153.44C547.132 153.334 546.879 153.187 546.692 153C546.318 152.68 546.078 152.346 545.971 151.999C545.891 151.652 545.811 151.238 545.731 150.758C544.957 145.393 544.463 140.014 544.249 134.622C544.062 129.203 543.969 123.798 543.969 118.406C543.969 116.057 543.982 113.748 544.009 111.479C544.036 109.211 544.076 106.902 544.129 104.553C543.809 104.526 543.502 104.419 543.208 104.232C542.941 104.046 542.701 103.819 542.488 103.552C542.274 103.258 542.101 102.965 541.967 102.671C541.86 102.351 541.807 102.044 541.807 101.75C541.807 101.456 541.874 101.163 542.007 100.869C542.167 100.576 542.354 100.309 542.568 100.068C542.808 99.8281 543.062 99.6012 543.328 99.3877C543.595 99.1742 543.836 99.0007 544.049 98.8672V98.1465C544.049 97.8796 544.049 97.5726 544.049 97.2256C544.076 96.8786 544.129 96.5583 544.209 96.2646C544.316 95.9443 544.476 95.6908 544.69 95.5039C544.903 95.2904 545.224 95.1836 545.651 95.1836C546.211 95.1836 546.772 95.277 547.332 95.4639C547.893 95.6507 548.373 95.9844 548.774 96.4648C550.776 95.6641 552.884 95.2637 555.1 95.2637C557.048 95.2637 558.824 95.6507 560.425 96.4248C562.027 97.1989 563.388 98.2399 564.509 99.5479C565.657 100.856 566.538 102.364 567.152 104.072C567.766 105.781 568.073 107.569 568.073 109.438C568.073 111.439 567.699 113.388 566.951 115.283C566.204 117.152 565.23 118.927 564.029 120.608C562.827 122.29 561.453 123.838 559.905 125.253C558.383 126.641 556.835 127.855 555.26 128.896C557.769 132.233 560.305 135.543 562.867 138.826C565.457 142.083 568.099 145.339 570.795 148.596C570.955 148.783 571.196 149.063 571.516 149.437C571.863 149.81 572.21 150.224 572.557 150.678C572.904 151.105 573.198 151.519 573.438 151.919C573.705 152.319 573.838 152.626 573.838 152.84ZM562.147 108.797C562.147 107.809 561.973 106.782 561.626 105.714C561.279 104.646 560.785 103.685 560.145 102.831C559.504 101.95 558.73 101.229 557.823 100.669C556.942 100.108 555.954 99.8281 554.86 99.8281C553.979 99.8281 553.098 99.9616 552.217 100.229C551.363 100.469 550.535 100.789 549.735 101.189C549.788 105.167 549.828 109.144 549.855 113.121C549.908 117.098 549.975 121.076 550.055 125.053L550.776 125.133C552.164 124.359 553.525 123.384 554.86 122.21C556.221 121.035 557.436 119.728 558.503 118.286C559.598 116.845 560.478 115.323 561.146 113.722C561.813 112.093 562.147 110.452 562.147 108.797ZM604.646 130.979C604.646 131.539 604.446 132.126 604.045 132.74C603.645 133.354 603.204 133.808 602.724 134.102C602.591 134.182 602.364 134.262 602.043 134.342C601.723 134.422 601.376 134.502 601.002 134.582C600.655 134.635 600.308 134.702 599.961 134.782C599.641 134.836 599.387 134.876 599.201 134.902L600.161 140.828C600.455 142.67 600.669 144.525 600.802 146.394C600.962 148.235 601.309 150.064 601.843 151.879C601.897 152.039 601.95 152.186 602.003 152.319C602.057 152.453 602.083 152.626 602.083 152.84C602.083 153.187 601.977 153.454 601.763 153.641C601.576 153.827 601.336 153.961 601.042 154.041C600.775 154.148 600.482 154.215 600.161 154.241C599.841 154.268 599.548 154.281 599.281 154.281H598.72C597.893 154.281 597.252 154.215 596.798 154.081C596.371 153.948 596.037 153.721 595.797 153.4C595.557 153.08 595.397 152.68 595.317 152.199C595.237 151.692 595.143 151.078 595.036 150.357C594.396 145.473 593.675 140.588 592.874 135.703C591.219 135.917 589.551 136.117 587.87 136.304C586.215 136.491 584.546 136.664 582.865 136.824L581.583 144.672C581.53 145.152 581.45 145.806 581.343 146.634C581.263 147.461 581.156 148.315 581.023 149.196C580.916 150.05 580.783 150.851 580.622 151.599C580.489 152.346 580.329 152.893 580.142 153.24C579.982 153.561 579.835 153.787 579.702 153.921C579.568 154.054 579.314 154.121 578.941 154.121C578.46 154.121 577.98 154.028 577.499 153.841C577.046 153.681 576.632 153.44 576.258 153.12C575.911 152.826 575.631 152.466 575.417 152.039C575.204 151.612 575.097 151.132 575.097 150.598C575.097 150.064 575.15 149.53 575.257 148.996C575.391 148.462 575.497 147.928 575.578 147.395C575.871 145.633 576.138 143.884 576.378 142.149C576.619 140.388 576.885 138.639 577.179 136.904C576.992 136.878 576.779 136.838 576.538 136.784C576.298 136.704 576.058 136.611 575.818 136.504C575.604 136.397 575.417 136.264 575.257 136.104C575.097 135.943 575.017 135.757 575.017 135.543C575.017 135.276 575.11 135.036 575.297 134.822C575.511 134.582 575.751 134.368 576.018 134.182C576.312 133.968 576.605 133.795 576.899 133.661C577.192 133.501 577.446 133.381 577.66 133.301C578.22 129.564 578.754 125.84 579.261 122.13C579.768 118.42 580.222 114.669 580.622 110.879C580.729 109.865 580.823 108.837 580.903 107.796C580.983 106.755 581.063 105.714 581.143 104.673C581.25 103.632 581.37 102.604 581.503 101.59C581.663 100.576 581.877 99.5612 582.144 98.5469C582.384 97.5859 582.785 96.8118 583.345 96.2246C583.906 95.6374 584.733 95.3438 585.828 95.3438C586.148 95.3438 586.455 95.3704 586.748 95.4238C587.069 95.4772 587.349 95.584 587.589 95.7441C588.283 96.0911 589.004 97.0387 589.751 98.5869C590.499 100.135 591.246 102.017 591.994 104.232C592.741 106.421 593.448 108.797 594.116 111.359C594.81 113.922 595.437 116.404 595.997 118.807C596.558 121.209 597.038 123.384 597.439 125.333C597.839 127.255 598.133 128.683 598.32 129.617C598.88 129.537 599.441 129.47 600.001 129.417C600.562 129.337 601.122 129.297 601.683 129.297C601.95 129.297 602.257 129.31 602.604 129.337C602.951 129.364 603.271 129.444 603.565 129.577C603.885 129.684 604.139 129.857 604.326 130.098C604.539 130.311 604.646 130.605 604.646 130.979ZM592.074 130.658C591.38 126.868 590.619 123.118 589.791 119.407C588.991 115.67 588.043 111.947 586.949 108.236C586.468 112.267 585.948 116.271 585.387 120.248C584.827 124.225 584.226 128.202 583.585 132.18C585.027 131.966 586.441 131.739 587.829 131.499C589.244 131.232 590.659 130.952 592.074 130.658ZM641.259 98.3867C641.259 99.4544 641.019 100.255 640.538 100.789C640.085 101.296 639.497 101.657 638.777 101.87C638.056 102.084 637.269 102.217 636.414 102.271C635.587 102.297 634.8 102.364 634.052 102.471L631.89 102.711C632.504 107.436 632.878 112.16 633.011 116.885C633.171 121.583 633.251 126.334 633.251 131.139C633.251 132.633 633.211 134.222 633.131 135.903C633.051 137.558 632.864 139.213 632.571 140.868C632.277 142.496 631.85 144.058 631.289 145.553C630.729 147.048 629.968 148.369 629.007 149.517C628.046 150.638 626.858 151.545 625.444 152.239C624.029 152.907 622.334 153.24 620.359 153.24C618.09 153.24 616.061 152.76 614.273 151.799C612.511 150.811 611.016 149.53 609.788 147.955C608.561 146.38 607.626 144.592 606.986 142.59C606.345 140.561 606.025 138.506 606.025 136.424C606.025 135.997 606.038 135.303 606.065 134.342C606.118 133.381 606.225 132.407 606.385 131.419C606.572 130.405 606.839 129.524 607.186 128.776C607.56 128.002 608.053 127.615 608.667 127.615C609.014 127.615 609.441 127.709 609.949 127.896C610.482 128.056 610.976 128.283 611.43 128.576C611.911 128.87 612.311 129.217 612.631 129.617C612.978 129.991 613.152 130.391 613.152 130.818C613.152 131.833 613.032 132.82 612.791 133.781C612.551 134.742 612.431 135.73 612.431 136.744C612.431 137.839 612.591 139.053 612.912 140.388C613.232 141.722 613.712 142.99 614.353 144.191C614.994 145.366 615.794 146.354 616.755 147.154C617.743 147.955 618.891 148.355 620.199 148.355C621.16 148.355 621.974 148.182 622.641 147.835C623.335 147.461 623.909 146.981 624.363 146.394C624.843 145.78 625.217 145.086 625.484 144.312C625.777 143.537 626.018 142.75 626.204 141.949C626.818 139.253 627.165 136.531 627.246 133.781C627.352 131.005 627.406 128.202 627.406 125.373C627.406 121.716 627.312 118.059 627.125 114.402C626.965 110.745 626.658 107.089 626.204 103.432C624.389 103.645 622.601 103.872 620.839 104.112C619.078 104.353 617.289 104.473 615.474 104.473C615.02 104.473 614.66 104.379 614.393 104.192C614.153 104.006 614.033 103.672 614.033 103.191C614.033 102.257 614.313 101.55 614.873 101.069C615.434 100.562 616.141 100.202 616.996 99.9883C618.41 99.5879 619.852 99.3076 621.32 99.1475C622.815 98.9606 624.283 98.7604 625.724 98.5469V97.9062C625.724 97.4525 625.884 97.1722 626.204 97.0654C626.525 96.932 626.872 96.8652 627.246 96.8652C627.806 96.8652 628.353 96.9453 628.887 97.1055C629.421 97.2656 629.915 97.5326 630.369 97.9062C631.863 97.666 633.345 97.3857 634.813 97.0654C636.308 96.7184 637.843 96.5449 639.417 96.5449C639.978 96.5449 640.418 96.7184 640.739 97.0654C641.086 97.3857 641.259 97.8262 641.259 98.3867ZM697.887 113.041C697.887 119.367 697.353 125.613 696.286 131.779C695.245 137.919 693.483 143.924 691.001 149.797C691.081 149.984 691.201 150.251 691.361 150.598C691.521 150.945 691.681 151.318 691.841 151.719C692.001 152.092 692.135 152.453 692.242 152.8C692.375 153.147 692.442 153.4 692.442 153.561C692.442 153.934 692.335 154.215 692.122 154.401C691.908 154.588 691.641 154.722 691.321 154.802C691.001 154.882 690.667 154.922 690.32 154.922C690 154.922 689.719 154.922 689.479 154.922C688.785 154.922 688.171 154.882 687.637 154.802C687.103 154.722 686.57 154.441 686.036 153.961C685.662 153.641 685.222 152.84 684.714 151.559C684.234 150.251 683.7 148.636 683.113 146.714C682.526 144.765 681.912 142.576 681.271 140.147C680.657 137.718 680.03 135.223 679.389 132.66C678.775 130.071 678.175 127.508 677.587 124.973C677 122.41 676.453 120.035 675.946 117.846C675.465 115.657 675.038 113.722 674.665 112.04C674.318 110.358 674.051 109.117 673.864 108.316C673.57 106.955 673.237 105.607 672.863 104.272C672.516 102.938 672.342 101.563 672.342 100.148C672.342 99.668 672.516 99.361 672.863 99.2275C673.21 99.0941 673.57 99.0273 673.944 99.0273C674.718 99.0273 675.452 99.1608 676.146 99.4277C676.84 99.6947 677.387 100.148 677.788 100.789C678.001 101.163 678.161 101.67 678.268 102.311C678.402 102.924 678.508 103.432 678.588 103.832C679.443 107.729 680.323 111.613 681.231 115.483C682.139 119.327 683.099 123.184 684.114 127.055C684.754 129.484 685.382 131.886 685.996 134.262C686.636 136.637 687.344 139.013 688.118 141.389C689.452 137.171 690.4 132.86 690.96 128.456C691.521 124.052 691.801 119.634 691.801 115.203C691.801 114.509 691.788 113.642 691.761 112.601C691.761 111.56 691.748 110.452 691.721 109.277C691.695 108.076 691.641 106.848 691.561 105.594C691.508 104.339 691.428 103.138 691.321 101.99C691.214 100.842 691.067 99.7881 690.88 98.8271C690.72 97.8395 690.52 97.0521 690.28 96.4648C690.2 96.2513 690.106 96.0645 690 95.9043C689.919 95.7174 689.879 95.5039 689.879 95.2637C689.879 94.9434 690 94.6898 690.24 94.5029C690.48 94.3161 690.76 94.1693 691.081 94.0625C691.401 93.9557 691.735 93.889 692.082 93.8623C692.429 93.8356 692.709 93.8223 692.922 93.8223C693.643 93.8223 694.27 93.9023 694.804 94.0625C695.365 94.196 695.912 94.543 696.446 95.1035C696.686 95.3438 696.886 95.891 697.046 96.7451C697.207 97.5993 697.34 98.6136 697.447 99.7881C697.554 100.963 697.634 102.23 697.687 103.592C697.767 104.926 697.821 106.221 697.847 107.476C697.874 108.73 697.887 109.851 697.887 110.839C697.887 111.826 697.887 112.561 697.887 113.041Z" fill="black"/>
</svg>