<svg width="773" height="339" viewBox="0 0 773 339" fill="none" xmlns="http://www.w3.org/2000/svg">
<path d="M321.788 216.595C321.146 216.595 320.504 216.481 319.862 216.255C319.239 216.028 318.635 215.698 318.05 215.264C317.465 214.811 316.955 214.216 316.521 213.479C316.086 212.743 315.85 211.865 315.812 210.846V200.622C315.812 200.093 316.001 199.659 316.379 199.319C316.775 198.961 317.238 198.781 317.767 198.781C318.899 198.876 319.513 199.489 319.607 200.622V210.619C319.626 211.072 319.721 211.459 319.891 211.78C320.061 212.082 320.249 212.328 320.457 212.517C320.665 212.687 320.872 212.819 321.08 212.913C321.307 212.989 321.533 213.026 321.76 213.026C321.986 213.026 322.213 212.989 322.439 212.913C322.666 212.819 322.883 212.687 323.091 212.517C323.299 212.328 323.487 212.082 323.657 211.78C323.827 211.459 323.912 211.072 323.912 210.619V200.622C323.912 200.093 324.101 199.659 324.479 199.319C324.875 198.961 325.338 198.781 325.866 198.781C326.999 198.876 327.622 199.489 327.735 200.622V210.619C327.754 211.072 327.849 211.45 328.019 211.752C328.188 212.073 328.377 212.328 328.585 212.517C328.793 212.687 329 212.819 329.208 212.913C329.435 212.989 329.661 213.026 329.888 213.026C330.114 213.026 330.341 212.989 330.567 212.913C330.794 212.819 331.011 212.687 331.219 212.517C331.426 212.328 331.615 212.082 331.785 211.78C331.955 211.459 332.04 211.072 332.04 210.619V200.622C332.04 200.093 332.229 199.659 332.606 199.319C333.003 198.961 333.465 198.781 333.994 198.781C335.127 198.876 335.75 199.489 335.863 200.622V210.846C335.863 211.865 335.637 212.743 335.184 213.479C334.749 214.216 334.24 214.811 333.654 215.264C333.088 215.698 332.484 216.028 331.842 216.255C331.219 216.481 330.577 216.595 329.916 216.595C329.274 216.595 328.632 216.481 327.99 216.255C327.367 216.028 326.763 215.688 326.178 215.235C326.064 215.16 325.961 215.075 325.866 214.98C325.753 215.075 325.649 215.16 325.555 215.235C324.969 215.688 324.356 216.028 323.714 216.255C323.091 216.481 322.449 216.595 321.788 216.595ZM345.711 199.234H347.014H356.642C357.171 199.253 357.605 199.451 357.945 199.829C358.304 200.207 358.483 200.66 358.483 201.188C358.389 202.321 357.775 202.935 356.642 203.029H346.674C345.956 203.067 345.362 203.341 344.89 203.851C344.418 204.36 344.068 204.946 343.842 205.606C343.634 206.248 343.53 206.909 343.53 207.589C343.53 208.269 343.634 208.939 343.842 209.6C344.068 210.242 344.418 210.817 344.89 211.327C345.362 211.837 345.956 212.111 346.674 212.148H356.642C357.171 212.167 357.605 212.366 357.945 212.743C358.304 213.121 358.483 213.574 358.483 214.103C358.464 214.612 358.276 215.047 357.917 215.405C357.577 215.745 357.152 215.924 356.642 215.943H346.249H345.711C344.389 215.868 343.294 215.368 342.426 214.442C341.576 213.498 340.962 212.432 340.585 211.242C340.226 210.053 340.047 208.835 340.047 207.589C340.047 206.343 340.236 205.125 340.613 203.936C340.991 202.746 341.604 201.689 342.454 200.764C343.304 199.82 344.389 199.31 345.711 199.234ZM358.427 207.476C358.427 208.004 358.238 208.448 357.86 208.807C357.502 209.184 357.058 209.373 356.529 209.373H347.976C347.448 209.373 346.995 209.194 346.617 208.835C346.258 208.457 346.079 208.004 346.079 207.476C346.079 206.947 346.258 206.494 346.617 206.116C346.995 205.757 347.448 205.578 347.976 205.578H356.529C357.058 205.578 357.502 205.767 357.86 206.145C358.238 206.503 358.427 206.947 358.427 207.476ZM381.075 208.467C381.434 209.222 381.613 209.987 381.613 210.761C381.613 211.516 381.424 212.271 381.047 213.026C380.669 213.763 380.055 214.424 379.206 215.009C378.356 215.575 377.271 215.858 375.949 215.858H375.779C375.666 215.877 375.553 215.887 375.439 215.887H364.054C363.545 215.868 363.11 215.688 362.752 215.349C362.412 214.99 362.233 214.556 362.214 214.046V201.075C362.233 200.565 362.412 200.141 362.752 199.801C363.11 199.442 363.545 199.253 364.054 199.234H373.797C373.91 199.234 374.023 199.244 374.136 199.263H374.306C375.628 199.3 376.714 199.603 377.563 200.169C378.413 200.735 379.026 201.387 379.404 202.123C379.782 202.84 379.97 203.567 379.97 204.304C379.97 205.059 379.791 205.795 379.432 206.513C379.414 206.55 379.395 206.579 379.376 206.598C380.15 207.145 380.716 207.768 381.075 208.467ZM376.119 212.092C376.478 212.111 376.77 212.045 376.997 211.894C377.242 211.743 377.422 211.573 377.535 211.384C377.648 211.176 377.705 210.968 377.705 210.761C377.705 210.629 377.648 210.449 377.535 210.223C377.422 209.977 377.242 209.779 376.997 209.628C376.77 209.477 376.478 209.392 376.119 209.373H374.306H366.037V211.327C366.037 211.837 366.301 212.092 366.83 212.092H367.056H376.119ZM375.383 205.323C375.609 205.191 375.779 205.04 375.892 204.87C376.006 204.681 376.062 204.493 376.062 204.304C376.062 204.115 376.006 203.936 375.892 203.766C375.779 203.577 375.6 203.416 375.354 203.284C375.128 203.133 374.835 203.048 374.476 203.029H366.83C366.301 203.029 366.037 203.284 366.037 203.794V205.578H374.476C374.835 205.559 375.137 205.474 375.383 205.323ZM413.061 199.234C414.383 199.31 415.468 199.82 416.318 200.764C417.168 201.689 417.781 202.746 418.159 203.936C418.536 205.125 418.725 206.343 418.725 207.589C418.725 208.835 418.536 210.053 418.159 211.242C417.8 212.432 417.186 213.498 416.318 214.442C415.468 215.368 414.383 215.868 413.061 215.943H402.639C402.129 215.924 401.695 215.745 401.336 215.405C400.997 215.047 400.817 214.612 400.798 214.103V207.079C400.817 206.55 401.015 206.116 401.393 205.776C401.771 205.418 402.224 205.238 402.752 205.238C403.262 205.257 403.696 205.446 404.055 205.805C404.414 206.145 404.603 206.569 404.622 207.079V211.384C404.622 211.894 404.886 212.148 405.415 212.148H412.098C412.816 212.111 413.41 211.837 413.882 211.327C414.354 210.817 414.694 210.242 414.902 209.6C415.128 208.939 415.242 208.269 415.242 207.589C415.242 206.909 415.128 206.248 414.902 205.606C414.694 204.946 414.354 204.36 413.882 203.851C413.41 203.341 412.816 203.067 412.098 203.029H402.639C401.506 202.935 400.893 202.321 400.798 201.188C400.798 200.66 400.968 200.207 401.308 199.829C401.667 199.451 402.111 199.253 402.639 199.234H413.061ZM427.95 199.234H429.252H438.881C439.41 199.253 439.844 199.451 440.184 199.829C440.543 200.207 440.722 200.66 440.722 201.188C440.628 202.321 440.014 202.935 438.881 203.029H428.912C428.195 203.067 427.6 203.341 427.128 203.851C426.656 204.36 426.307 204.946 426.08 205.606C425.873 206.248 425.769 206.909 425.769 207.589C425.769 208.269 425.873 208.939 426.08 209.6C426.307 210.242 426.656 210.817 427.128 211.327C427.6 211.837 428.195 212.111 428.912 212.148H438.881C439.41 212.167 439.844 212.366 440.184 212.743C440.543 213.121 440.722 213.574 440.722 214.103C440.703 214.612 440.514 215.047 440.156 215.405C439.816 215.745 439.391 215.924 438.881 215.943H428.488H427.95C426.628 215.868 425.533 215.368 424.664 214.442C423.815 213.498 423.201 212.432 422.824 211.242C422.465 210.053 422.286 208.835 422.286 207.589C422.286 206.343 422.474 205.125 422.852 203.936C423.23 202.746 423.843 201.689 424.693 200.764C425.542 199.82 426.628 199.31 427.95 199.234ZM440.665 207.476C440.665 208.004 440.477 208.448 440.099 208.807C439.74 209.184 439.297 209.373 438.768 209.373H430.215C429.687 209.373 429.233 209.194 428.856 208.835C428.497 208.457 428.318 208.004 428.318 207.476C428.318 206.947 428.497 206.494 428.856 206.116C429.233 205.757 429.687 205.578 430.215 205.578H438.768C439.297 205.578 439.74 205.767 440.099 206.145C440.477 206.503 440.665 206.947 440.665 207.476ZM449.833 214.442C448.965 213.14 448.096 211.431 447.228 209.316L444.113 201.273C444.018 201.066 443.962 200.839 443.943 200.594C443.905 200.065 444.056 199.612 444.396 199.234C444.755 198.857 445.208 198.668 445.755 198.668C446.34 198.668 446.775 198.8 447.058 199.064C447.36 199.31 447.605 199.631 447.794 200.027L450.485 207.391C450.787 208.165 451.079 208.901 451.363 209.6C451.665 210.279 451.995 210.902 452.354 211.469C452.713 212.035 453.118 212.337 453.572 212.375C454.006 212.337 454.393 212.035 454.733 211.469C455.11 210.902 455.441 210.279 455.724 209.6C456.026 208.901 456.328 208.165 456.63 207.391L459.264 200.027C459.453 199.631 459.689 199.31 459.972 199.064C460.274 198.8 460.737 198.668 461.36 198.668C461.907 198.668 462.351 198.857 462.691 199.234C463.049 199.612 463.21 200.065 463.172 200.594C463.153 200.839 463.097 201.066 463.002 201.273L459.887 209.316C459.019 211.469 458.15 213.187 457.282 214.471C456.432 215.736 455.195 216.378 453.572 216.396C451.929 216.378 450.683 215.726 449.833 214.442ZM472.227 199.234H473.529H483.158C483.687 199.253 484.121 199.451 484.461 199.829C484.82 200.207 484.999 200.66 484.999 201.188C484.905 202.321 484.291 202.935 483.158 203.029H473.19C472.472 203.067 471.877 203.341 471.405 203.851C470.933 204.36 470.584 204.946 470.358 205.606C470.15 206.248 470.046 206.909 470.046 207.589C470.046 208.269 470.15 208.939 470.358 209.6C470.584 210.242 470.933 210.817 471.405 211.327C471.877 211.837 472.472 212.111 473.19 212.148H483.158C483.687 212.167 484.121 212.366 484.461 212.743C484.82 213.121 484.999 213.574 484.999 214.103C484.98 214.612 484.791 215.047 484.433 215.405C484.093 215.745 483.668 215.924 483.158 215.943H472.765H472.227C470.905 215.868 469.81 215.368 468.942 214.442C468.092 213.498 467.478 212.432 467.101 211.242C466.742 210.053 466.563 208.835 466.563 207.589C466.563 206.343 466.751 205.125 467.129 203.936C467.507 202.746 468.12 201.689 468.97 200.764C469.819 199.82 470.905 199.31 472.227 199.234ZM484.943 207.476C484.943 208.004 484.754 208.448 484.376 208.807C484.017 209.184 483.574 209.373 483.045 209.373H474.492C473.964 209.373 473.511 209.194 473.133 208.835C472.774 208.457 472.595 208.004 472.595 207.476C472.595 206.947 472.774 206.494 473.133 206.116C473.511 205.757 473.964 205.578 474.492 205.578H483.045C483.574 205.578 484.017 205.767 484.376 206.145C484.754 206.503 484.943 206.947 484.943 207.476ZM490.599 198.781C491.127 198.781 491.58 198.961 491.958 199.319C492.336 199.659 492.534 200.093 492.553 200.622V207.447C492.534 208.221 492.581 208.939 492.694 209.6C492.827 210.242 493.129 210.817 493.601 211.327C494.073 211.837 494.667 212.111 495.385 212.148H504.447C504.976 212.167 505.41 212.366 505.75 212.743C506.109 213.121 506.288 213.574 506.288 214.103C506.269 214.612 506.08 215.047 505.722 215.405C505.382 215.745 504.957 215.924 504.447 215.943H494.422C493.1 215.868 492.005 215.424 491.137 214.612C490.287 213.782 489.674 212.771 489.296 211.582C488.937 210.393 488.748 209.128 488.73 207.787V200.622C488.748 200.112 488.937 199.688 489.296 199.348C489.655 198.989 490.089 198.8 490.599 198.781ZM525.057 199.234C526.019 199.253 526.879 199.555 527.634 200.141C528.389 200.726 528.993 201.424 529.446 202.236C529.918 203.048 530.268 203.907 530.494 204.813C530.721 205.72 530.834 206.645 530.834 207.589C530.834 208.835 530.636 210.062 530.239 211.271C529.862 212.46 529.229 213.517 528.342 214.442C527.473 215.368 526.378 215.868 525.057 215.943H515.173C513.851 215.887 512.747 215.396 511.859 214.471C510.972 213.546 510.339 212.479 509.962 211.271C509.603 210.062 509.424 208.835 509.424 207.589C509.424 206.343 509.613 205.125 509.99 203.936C510.368 202.727 510.991 201.66 511.859 200.735C512.747 199.791 513.851 199.291 515.173 199.234H515.711H524.518H525.057ZM524.094 212.148C524.811 212.111 525.406 211.846 525.878 211.355C526.369 210.846 526.718 210.26 526.926 209.6C527.133 208.939 527.237 208.269 527.237 207.589C527.237 206.909 527.124 206.248 526.897 205.606C526.69 204.946 526.35 204.36 525.878 203.851C525.406 203.341 524.811 203.067 524.094 203.029H516.051C515.333 203.067 514.739 203.341 514.267 203.851C513.795 204.36 513.445 204.946 513.219 205.606C513.011 206.248 512.907 206.909 512.907 207.589C512.907 208.269 513.011 208.939 513.219 209.6C513.426 210.26 513.766 210.846 514.238 211.355C514.729 211.846 515.333 212.111 516.051 212.148H524.094ZM538.614 214.442C538.501 215.575 537.878 216.189 536.745 216.283C536.216 216.283 535.754 216.113 535.357 215.773C534.98 215.415 534.791 214.971 534.791 214.442V201.075C534.81 200.547 535.008 200.112 535.386 199.772C535.763 199.414 536.216 199.234 536.745 199.234H548.639C550.301 199.291 551.556 199.659 552.406 200.339C553.256 201 553.869 201.755 554.247 202.604C554.624 203.454 554.813 204.313 554.813 205.182C554.813 206.088 554.624 206.966 554.247 207.815C553.888 208.665 553.275 209.43 552.406 210.109C551.556 210.77 550.471 211.091 549.149 211.072H542.012C541.484 211.072 541.04 210.883 540.681 210.506C540.304 210.147 540.115 209.703 540.115 209.175C540.115 208.646 540.294 208.202 540.653 207.844C541.031 207.466 541.484 207.277 542.012 207.277H549.319C549.678 207.277 549.971 207.164 550.197 206.938C550.443 206.692 550.622 206.418 550.735 206.116C550.848 205.795 550.905 205.474 550.905 205.153C550.905 204.851 550.848 204.549 550.735 204.247C550.622 203.926 550.443 203.652 550.197 203.426C549.971 203.18 549.678 203.048 549.319 203.029H539.35C538.86 203.048 538.614 203.294 538.614 203.766V214.442ZM563.953 199.234H565.256H574.884C575.413 199.253 575.847 199.451 576.187 199.829C576.546 200.207 576.725 200.66 576.725 201.188C576.631 202.321 576.017 202.935 574.884 203.029H564.916C564.198 203.067 563.604 203.341 563.132 203.851C562.66 204.36 562.31 204.946 562.084 205.606C561.876 206.248 561.772 206.909 561.772 207.589C561.772 208.269 561.876 208.939 562.084 209.6C562.31 210.242 562.66 210.817 563.132 211.327C563.604 211.837 564.198 212.111 564.916 212.148H574.884C575.413 212.167 575.847 212.366 576.187 212.743C576.546 213.121 576.725 213.574 576.725 214.103C576.706 214.612 576.518 215.047 576.159 215.405C575.819 215.745 575.394 215.924 574.884 215.943H564.491H563.953C562.631 215.868 561.536 215.368 560.668 214.442C559.818 213.498 559.204 212.432 558.827 211.242C558.468 210.053 558.289 208.835 558.289 207.589C558.289 206.343 558.478 205.125 558.855 203.936C559.233 202.746 559.846 201.689 560.696 200.764C561.546 199.82 562.631 199.31 563.953 199.234ZM576.669 207.476C576.669 208.004 576.48 208.448 576.102 208.807C575.744 209.184 575.3 209.373 574.771 209.373H566.218C565.69 209.373 565.237 209.194 564.859 208.835C564.5 208.457 564.321 208.004 564.321 207.476C564.321 206.947 564.5 206.494 564.859 206.116C565.237 205.757 565.69 205.578 566.218 205.578H574.771C575.3 205.578 575.744 205.767 576.102 206.145C576.48 206.503 576.669 206.947 576.669 207.476ZM584.251 214.499C584.137 215.632 583.514 216.245 582.381 216.34C581.853 216.34 581.39 216.17 580.994 215.83C580.616 215.471 580.427 215.028 580.427 214.499V201.075C580.446 200.547 580.644 200.112 581.022 199.772C581.4 199.414 581.853 199.234 582.381 199.234H583.769H587.253H594.248C594.361 199.234 594.474 199.244 594.587 199.263H594.757C596.079 199.3 597.165 199.603 598.014 200.169C598.864 200.735 599.477 201.387 599.855 202.123C600.233 202.84 600.421 203.567 600.421 204.304C600.421 205.059 600.233 205.805 599.855 206.541C599.496 207.258 598.883 207.9 598.014 208.467C597.165 209.033 596.079 209.335 594.757 209.373H589.773C589.924 210.317 590.236 211.016 590.708 211.469C591.161 211.922 591.737 212.148 592.435 212.148H598.552C599.081 212.167 599.515 212.366 599.855 212.743C600.214 213.121 600.393 213.574 600.393 214.103C600.374 214.612 600.185 215.047 599.827 215.405C599.487 215.745 599.062 215.924 598.552 215.943H591.925C590.528 215.962 589.263 215.415 588.13 214.301C586.998 213.187 586.308 211.865 586.063 210.336C585.723 208.637 585.553 207.683 585.553 207.476C585.553 206.947 585.733 206.503 586.091 206.145C586.469 205.767 586.922 205.578 587.451 205.578H594.927C595.286 205.559 595.579 205.484 595.805 205.352C596.051 205.201 596.23 205.04 596.343 204.87C596.457 204.681 596.513 204.493 596.513 204.304C596.513 204.115 596.457 203.936 596.343 203.766C596.23 203.577 596.051 203.416 595.805 203.284C595.579 203.133 595.286 203.048 594.927 203.029H587.253H584.987C584.496 203.048 584.251 203.294 584.251 203.766V214.499Z" fill="black"/>
</svg>