<?xml version="1.0" standalone="no"?><svg xmlns="http://www.w3.org/2000/svg" viewBox="0 0 1440 320"><path fill="#000000" fill-opacity="1" d="M0,224L9.2,234.7C18.5,245,37,267,55,229.3C73.8,192,92,96,111,53.3C129.2,11,148,21,166,64C184.6,107,203,181,222,176C240,171,258,85,277,69.3C295.4,53,314,107,332,122.7C350.8,139,369,117,388,128C406.2,139,425,181,443,186.7C461.5,192,480,160,498,154.7C516.9,149,535,171,554,202.7C572.3,235,591,277,609,256C627.7,235,646,149,665,144C683.1,139,702,213,720,224C738.5,235,757,181,775,170.7C793.8,160,812,192,831,208C849.2,224,868,224,886,202.7C904.6,181,923,139,942,144C960,149,978,203,997,229.3C1015.4,256,1034,256,1052,218.7C1070.8,181,1089,107,1108,85.3C1126.2,64,1145,96,1163,138.7C1181.5,181,1200,235,1218,234.7C1236.9,235,1255,181,1274,133.3C1292.3,85,1311,43,1329,69.3C1347.7,96,1366,192,1385,213.3C1403.1,235,1422,181,1431,154.7L1440,128L1440,320L1430.8,320C1421.5,320,1403,320,1385,320C1366.2,320,1348,320,1329,320C1310.8,320,1292,320,1274,320C1255.4,320,1237,320,1218,320C1200,320,1182,320,1163,320C1144.6,320,1126,320,1108,320C1089.2,320,1071,320,1052,320C1033.8,320,1015,320,997,320C978.5,320,960,320,942,320C923.1,320,905,320,886,320C867.7,320,849,320,831,320C812.3,320,794,320,775,320C756.9,320,738,320,720,320C701.5,320,683,320,665,320C646.2,320,628,320,609,320C590.8,320,572,320,554,320C535.4,320,517,320,498,320C480,320,462,320,443,320C424.6,320,406,320,388,320C369.2,320,351,320,332,320C313.8,320,295,320,277,320C258.5,320,240,320,222,320C203.1,320,185,320,166,320C147.7,320,129,320,111,320C92.3,320,74,320,55,320C36.9,320,18,320,9,320L0,320Z"></path></svg>