<svg viewBox="0 0 1920 128" fill="none" xmlns="http://www.w3.org/2000/svg">
<path fill-rule="evenodd" clip-rule="evenodd" d="M0 101.809C0 95.8088 2.95851 90.1947 7.90775 86.803L49.3419 58.4079C56.2313 53.6865 65.3292 53.7433 72.1591 58.5504L105.29 81.8691C113.654 87.7558 125.112 86.3837 131.849 78.6884L170.884 34.1034C176.756 27.3967 186.358 25.3855 194.427 29.172L238.53 49.8656C239.508 50.3248 240.448 50.8626 241.34 51.4738L295.689 88.7199C299.018 91.0013 302.96 92.2222 306.995 92.2222H357.745C359.243 92.2222 360.738 92.0537 362.199 91.72L416.286 79.3645C419.256 78.686 422.342 78.6951 425.308 79.391L468.3 89.4774C475.5 91.1665 483.045 88.7447 487.916 83.1806L525.551 40.1954C533.588 31.0148 547.902 31.1092 555.818 40.395L594.011 85.1971C597.811 89.6546 603.374 92.2222 609.231 92.2222H654.467C658.588 92.2222 662.609 90.9493 665.979 88.5774L708.641 58.5504C715.471 53.7433 724.569 53.6865 731.458 58.4079L769.342 84.3699C776.231 89.0913 785.329 89.0344 792.159 84.2274L834.821 54.2004C838.191 51.8285 842.212 50.5556 846.333 50.5556H898.485C900.023 50.5556 901.556 50.3782 903.053 50.0269L957.747 37.1954C959.244 36.8441 960.777 36.6667 962.315 36.6667H1014.47C1018.59 36.6667 1022.61 35.3937 1025.98 33.0218L1066.86 4.24837C1074.53 -1.15349 1084.93 -0.491938 1091.86 5.83897L1133.01 43.4391C1137.89 47.8926 1144.64 49.6539 1151.07 48.1459L1200 36.6667L1252.12 24.7611C1257.64 23.4986 1263.45 24.6409 1268.08 27.9037L1318.49 63.3781C1319.49 64.0875 1320.56 64.7022 1321.69 65.2143L1374.58 89.3801C1378.61 91.2225 1383.14 91.6727 1387.46 90.6601L1432.78 80.0269C1437.44 78.9342 1441.55 76.2082 1444.37 72.3436L1485.86 15.4723C1493.48 5.03057 1508.86 4.44904 1517.24 14.2854L1548.32 50.7459C1554.96 58.5334 1566.41 60.0536 1574.85 54.2687L1611.36 29.2475C1617.21 25.2393 1624.74 24.6274 1631.16 27.6393L1675.96 48.6615C1678.62 49.9089 1681.52 50.5556 1684.46 50.5556H1740.8H1795.65C1798.52 50.5556 1801.35 51.1724 1803.96 52.3642L1852.38 74.485C1857.72 76.9261 1863.87 76.8948 1869.18 74.3996L1891.5 63.9263C1904.77 57.703 1920 67.3816 1920 82.0322L1919.5 120C1919.5 120 1911.05 120 1900 120H1860.8H1800H1740.8H1680H1620.8H1560H1500.8H1440H1380.8H1320H1260.8H1200H1140.8H1080H1020.8H960H900.8H840H780.8H720H660.8H600H540.8H480H420.8H360H300.8H240H180.8H120H60.8H18.1913C8.80363 120 5.30481e-06 120 5.30481e-06 120C5.30481e-06 120 0 110.612 0 101.809Z" fill="black"/>
<path fill-rule="evenodd" clip-rule="evenodd" d="M0 109.809C0 103.809 2.95851 98.1947 7.90775 94.803L49.3419 66.4079C56.2313 61.6865 65.3292 61.7433 72.1591 66.5504L105.29 89.8691C113.654 95.7558 125.112 94.3837 131.849 86.6884L170.884 42.1034C176.756 35.3967 186.358 33.3855 194.427 37.172L238.53 57.8656C239.508 58.3248 240.448 58.8626 241.34 59.4738L295.689 96.7199C299.018 99.0013 302.96 100.222 306.995 100.222H357.745C359.243 100.222 360.738 100.054 362.199 99.72L416.286 87.3645C419.256 86.686 422.342 86.6951 425.308 87.391L468.3 97.4774C475.5 99.1665 483.045 96.7447 487.916 91.1806L525.551 48.1954C533.588 39.0148 547.902 39.1092 555.818 48.395L594.011 93.1971C597.811 97.6546 603.374 100.222 609.231 100.222H654.467C658.588 100.222 662.609 98.9493 665.979 96.5774L708.641 66.5504C715.471 61.7433 724.569 61.6865 731.458 66.4079L769.342 92.3699C776.231 97.0913 785.329 97.0344 792.159 92.2274L834.821 62.2004C838.191 59.8285 842.212 58.5556 846.333 58.5556H898.485C900.023 58.5556 901.556 58.3782 903.053 58.0269L957.747 45.1954C959.244 44.8441 960.777 44.6667 962.315 44.6667H1014.47C1018.59 44.6667 1022.61 43.3937 1025.98 41.0218L1066.86 12.2484C1074.53 6.84651 1084.93 7.50807 1091.86 13.839L1133.01 51.4391C1137.89 55.8926 1144.64 57.6539 1151.07 56.1459L1200 44.6667L1252.12 32.7611C1257.64 31.4986 1263.45 32.6409 1268.08 35.9037L1318.49 71.3781C1319.49 72.0875 1320.56 72.7022 1321.69 73.2143L1374.58 97.3801C1378.61 99.2225 1383.14 99.6727 1387.46 98.6601L1432.78 88.0269C1437.44 86.9342 1441.55 84.2082 1444.37 80.3436L1485.86 23.4723C1493.48 13.0306 1508.86 12.449 1517.24 22.2854L1548.32 58.7459C1554.96 66.5334 1566.41 68.0536 1574.85 62.2687L1611.36 37.2475C1617.21 33.2393 1624.74 32.6274 1631.16 35.6393L1675.96 56.6615C1678.62 57.9089 1681.52 58.5556 1684.46 58.5556H1740.8H1795.65C1798.52 58.5556 1801.35 59.1724 1803.96 60.3642L1852.38 82.485C1857.72 84.9261 1863.87 84.8948 1869.18 82.3996L1891.5 71.9263C1904.77 65.703 1920 75.3816 1920 90.0322V128C1920 128 1911.05 128 1900 128H1860.8H1800H1740.8H1680H1620.8H1560H1500.8H1440H1380.8H1320H1260.8H1200H1140.8H1080H1020.8H960H900.8H840H780.8H720H660.8H600H540.8H480H420.8H360H300.8H240H180.8H120H60.8H18.1913C13.2548 128 3.65973e-05 128 3.65973e-05 128C3.65973e-05 128 0 114.919 0 109.809Z" fill="#1C1C28"/>
</svg>